<svg width="200" height="78" viewBox="0 0 200 78" fill="none" xmlns="http://www.w3.org/2000/svg">
<g clip-path="url(#clip0_815_3385)">
<path d="M46.6363 12.8017L8.76294 22.9499C6.539 23.5461 4.94827 21.16 6.58688 19.543C10.7506 15.4318 15.8564 12.292 21.3838 10.2441C22.1714 9.95223 22.6239 9.11517 22.4062 8.3059C22.1977 7.52907 21.4425 7.04104 20.6409 7.09509C18.2826 7.25416 16.5591 6.85262 16.3089 5.9198C15.9321 4.51285 19.0456 2.4588 23.2649 1.32675C27.4811 0.196249 31.2077 0.418643 31.5846 1.82559C31.8348 2.75841 30.5421 3.96768 28.4216 5.01015C27.7004 5.36382 27.2896 6.16536 27.4981 6.94219C27.7158 7.75301 28.5267 8.25185 29.3529 8.10976C35.1629 7.1198 41.1537 7.28505 46.8155 8.76304C49.044 9.34528 48.8602 12.2055 46.6348 12.8017H46.6363Z" fill="#16B364"/>
<path d="M60.7877 32.4864H60.4587C59.0934 32.4864 57.9876 31.3806 57.9876 30.0154V27.0501C57.9876 25.6849 56.8819 24.5791 55.5166 24.5791H7.74363C6.37838 24.5791 5.27259 25.6849 5.27259 27.0501V30.0154C5.27259 31.3806 4.1668 32.4864 2.80154 32.4864H2.47104C1.10579 32.4864 0 33.5922 0 34.9575V36.0849C0 37.0949 0.614672 38.0046 1.55367 38.3799L4.10193 39.3992C4.96525 39.7451 5.55676 40.5467 5.66795 41.4718C7.38378 55.8949 14.8046 66.7536 23.722 66.7536H39.5367C48.4541 66.7536 55.8749 55.8934 57.5923 41.4718C57.7019 40.5482 58.2934 39.7451 59.1583 39.4007L61.705 38.3814C62.644 38.0061 63.2587 37.098 63.2587 36.0864V34.959C63.2587 33.5938 62.1529 32.488 60.7877 32.488V32.4864ZM40.973 56.9822C38.4386 59.1196 35.0934 60.2965 31.5521 60.2965C28.0108 60.2965 24.6656 59.1196 22.1313 56.9822C19.5305 54.7876 18.0386 51.7173 18.0386 48.559C18.0386 47.3652 19.007 46.3969 20.2008 46.3969C21.3946 46.3969 22.3629 47.3652 22.3629 48.559C22.3629 50.4679 23.271 52.2857 24.9205 53.6772C26.6502 55.1351 29.0672 55.9722 31.5521 55.9722C34.0371 55.9722 36.4556 55.1351 38.1853 53.6772C39.8348 52.2857 40.7413 50.4679 40.7413 48.559C40.7413 47.3652 41.7097 46.3969 42.9035 46.3969C44.0973 46.3969 45.0656 47.3652 45.0656 48.559C45.0656 51.7173 43.5737 54.7876 40.973 56.9822ZM47.529 39.359C47.3251 39.4193 47.1197 39.4471 46.9174 39.4471C45.983 39.4471 45.1212 38.837 44.8448 37.8949C44.522 36.8 43.8008 35.9768 42.9158 35.6942C42.071 35.4239 41.1398 35.6602 40.2224 36.3799C39.2819 37.1166 37.9228 36.9513 37.1861 36.0123C36.4494 35.0733 36.6147 33.7142 37.5537 32.9776C39.5907 31.3806 42.0263 30.8695 44.2332 31.5768C46.4849 32.298 48.2641 34.2038 48.9915 36.6749C49.3282 37.8208 48.6734 39.0223 47.5274 39.359H47.529Z" fill="#16B364"/>
<path d="M100.497 25.9042C99.7838 26.8463 98.9128 27.7312 97.8857 28.559C96.8587 29.3729 95.688 30.0432 94.3753 30.5714C93.0626 31.0857 91.6278 31.342 90.0726 31.342C88.1452 31.342 86.4324 30.9853 84.9344 30.2718C83.4502 29.5444 82.2008 28.5312 81.1877 27.2324C80.1745 25.9196 79.4039 24.3845 78.8757 22.6301C78.3475 20.8602 78.0834 18.9405 78.0834 16.871C78.0834 14.1729 78.5406 11.7621 79.4533 9.63548C80.3815 7.49494 81.722 5.80999 83.478 4.58374C85.2479 3.34204 87.41 2.72119 89.9645 2.72119C92.0633 2.72119 94.0031 3.17061 95.7869 4.06945C97.5707 4.9683 98.956 6.28104 99.9398 8.00922C99.5969 8.37988 99.1475 8.8015 98.5915 9.27254C98.0355 9.72969 97.4641 10.1714 96.8788 10.5992C96.3073 11.0131 95.8147 11.3482 95.4008 11.6046C95.3297 11.4332 95.1722 11.1552 94.9297 10.7691C94.7012 10.3691 94.3738 9.96289 93.9444 9.54899C93.5305 9.12119 92.9946 8.75671 92.3382 8.4571C91.6958 8.15748 90.9251 8.00768 90.0263 8.00768C89.2556 8.00768 88.5344 8.19301 87.8641 8.56366C87.2077 8.93432 86.6301 9.48413 86.1297 10.2115C85.6448 10.939 85.2587 11.8316 84.973 12.888C84.7012 13.9305 84.5668 15.1289 84.5668 16.4849C84.5668 17.6988 84.6873 18.8401 84.9313 19.9104C85.1738 20.9806 85.5228 21.9227 85.9799 22.7366C86.451 23.5505 87.0224 24.1853 87.6927 24.6424C88.3629 25.0857 89.1197 25.3065 89.9614 25.3065C90.8757 25.3065 91.7174 25.1274 92.488 24.7706C93.2587 24.4139 93.9583 23.9644 94.5853 23.4223C95.2139 22.8664 95.7699 22.2949 96.2548 21.7096C96.712 22.0092 97.2185 22.4092 97.7745 22.9081C98.3305 23.393 98.8525 23.9073 99.3375 24.4494C99.8363 24.9776 100.222 25.4625 100.493 25.9057L100.497 25.9042Z" fill="#101828"/>
<path d="M114.406 31.6415C110.638 31.6415 107.819 30.6284 105.951 28.6021C104.08 26.562 103.146 23.6137 103.146 19.7604C103.146 17.2492 103.625 15.1426 104.581 13.4454C105.551 11.7465 106.893 10.4693 108.605 9.61369C110.332 8.74265 112.323 8.30713 114.578 8.30713C116.832 8.30713 118.853 8.84304 120.38 9.91331C121.921 10.9836 123.07 12.4677 123.827 14.3658C124.598 16.2639 124.984 18.4616 124.984 20.9589C124.984 23.1133 124.57 24.9913 123.742 26.5898C122.914 28.1882 121.716 29.4299 120.145 30.3148C118.575 31.1998 116.663 31.6415 114.408 31.6415H114.406ZM114.191 26.2685C115.104 26.2685 115.897 26.111 116.568 25.7975C117.254 25.4685 117.824 25.0191 118.281 24.4492C118.738 23.8639 119.073 23.1936 119.288 22.4369C119.517 21.6801 119.631 20.8739 119.631 20.0183C119.631 18.5913 119.432 17.328 119.032 16.2299C118.632 15.1303 118.032 14.2747 117.234 13.6616C116.449 13.033 115.464 12.7195 114.28 12.7195C113.095 12.7195 112.032 13.0268 111.219 13.6399C110.42 14.2531 109.827 15.0747 109.441 16.1017C109.056 17.1288 108.863 18.25 108.863 19.4623C108.863 21.4454 109.313 23.0809 110.212 24.3643C111.124 25.6338 112.453 26.2701 114.193 26.2701L114.191 26.2685Z" fill="#101828"/>
<path d="M139.495 31.6415C135.727 31.6415 132.908 30.6284 131.039 28.6021C129.169 26.562 128.235 23.6137 128.235 19.7604C128.235 17.2492 128.714 15.1426 129.669 13.4454C130.639 11.7465 131.981 10.4693 133.694 9.61369C135.421 8.74265 137.412 8.30713 139.666 8.30713C141.921 8.30713 143.941 8.84304 145.469 9.91331C147.01 10.9836 148.159 12.4677 148.916 14.3658C149.686 16.2639 150.073 18.4616 150.073 20.9589C150.073 23.1133 149.659 24.9913 148.831 26.5898C148.003 28.1882 146.805 29.4299 145.234 30.3148C143.663 31.1998 141.751 31.6415 139.497 31.6415H139.495ZM139.28 26.2685C140.193 26.2685 140.985 26.111 141.657 25.7975C142.343 25.4685 142.913 25.0191 143.37 24.4492C143.827 23.8639 144.162 23.1936 144.377 22.4369C144.605 21.6801 144.72 20.8739 144.72 20.0183C144.72 18.5913 144.52 17.328 144.12 16.2299C143.72 15.1303 143.121 14.2747 142.323 13.6616C141.538 13.033 140.553 12.7195 139.368 12.7195C138.184 12.7195 137.121 13.0268 136.307 13.6399C135.509 14.2531 134.916 15.0747 134.53 16.1017C134.145 17.1288 133.952 18.25 133.952 19.4623C133.952 21.4454 134.402 23.0809 135.3 24.3643C136.213 25.6338 137.541 26.2701 139.282 26.2701L139.28 26.2685Z" fill="#101828"/>
<path d="M169.018 32.1544C168.789 31.6833 168.439 31.0841 167.968 30.3567C167.497 29.6293 166.968 28.8586 166.385 28.0447C165.799 27.2169 165.192 26.4107 164.564 25.6262C163.951 24.8416 163.365 24.1482 162.809 23.549C162.252 22.9497 161.775 22.5219 161.375 22.264C161.16 22.4215 160.876 22.6424 160.517 22.9281C160.176 23.1999 159.855 23.4625 159.555 23.7204C159.256 23.9629 159.049 24.1343 158.934 24.2347C158.919 24.8478 158.899 25.5196 158.87 26.247C158.842 26.9744 158.806 27.6957 158.763 28.4092C158.734 29.1088 158.698 29.7513 158.656 30.3366C158.627 30.908 158.599 31.342 158.57 31.6432C158.113 31.7003 157.649 31.7435 157.178 31.7713C156.721 31.7991 156.258 31.8146 155.787 31.8146C155.202 31.8146 154.63 31.793 154.074 31.7497C153.532 31.7065 153.061 31.6571 152.661 31.5999C152.675 31.2571 152.71 30.508 152.768 29.3513C152.839 28.1945 152.91 26.7675 152.982 25.0702C153.067 23.3575 153.154 21.5026 153.239 19.5042C153.324 17.5057 153.41 15.4934 153.495 13.4671C153.595 11.4269 153.68 9.50726 153.751 7.70803C153.822 5.8949 153.88 4.32579 153.923 2.9976C153.966 1.65552 153.986 0.699534 153.986 0.12965C154.386 0.0864069 154.798 0.0586077 155.228 0.0447081C155.656 0.0169089 156.083 0.00146484 156.511 0.00146484C157.097 0.00146484 157.668 0.0292641 158.224 0.0864069C158.781 0.14355 159.288 0.243936 159.744 0.386021C159.744 1.48563 159.73 2.71189 159.702 4.06787C159.686 5.40996 159.659 6.77984 159.615 8.17753C159.574 9.57675 159.523 10.9173 159.466 12.2022C159.409 13.4872 159.359 14.6208 159.316 15.6061C159.273 16.5914 159.223 17.3327 159.166 17.8331C159.937 17.0486 160.836 16.2486 161.864 15.4347C162.905 14.6208 163.983 13.8362 165.097 13.0795C166.21 12.3088 167.273 11.603 168.286 10.9605C169.299 10.3042 170.17 9.74818 170.897 9.29104C171.098 9.49027 171.348 9.7837 171.648 10.1683C171.948 10.5389 172.253 10.9466 172.568 11.3883C172.896 11.8161 173.195 12.2378 173.467 12.6517C173.737 13.0517 173.952 13.3868 174.11 13.6571C173.568 13.986 172.896 14.3999 172.097 14.8988C171.311 15.3976 170.491 15.9196 169.636 16.4617C168.792 16.9899 168.008 17.5042 167.28 18.003C166.553 18.488 165.981 18.888 165.568 19.2015C165.91 19.4439 166.352 19.8362 166.894 20.3783C167.436 20.9065 168.037 21.5351 168.693 22.2625C169.35 22.9899 170.02 23.7822 170.706 24.6393C171.39 25.4964 172.062 26.3814 172.718 27.2941C173.375 28.193 173.974 29.0856 174.516 29.9706C174.331 30.0988 173.995 30.2702 173.51 30.4849C173.024 30.6841 172.482 30.8988 171.883 31.1273C171.283 31.3698 170.72 31.5845 170.192 31.7698C169.677 31.9551 169.285 32.0833 169.015 32.1559L169.018 32.1544Z" fill="#101828"/>
<path d="M79.8178 66.3323C79.8178 65.7763 79.8255 64.8836 79.8394 63.6558C79.8533 62.428 79.8749 61.001 79.9042 59.3748C79.9475 57.747 79.983 56.0358 80.0108 54.2365C80.0541 52.4388 80.0896 50.6751 80.1174 48.9485C80.1452 47.2219 80.1745 45.645 80.2023 44.218C80.2456 42.791 80.2734 41.6342 80.2873 40.7493C80.3012 39.8504 80.3089 39.3578 80.3089 39.2713C81.0502 39.2141 81.929 39.1493 82.9421 39.0782C83.9691 39.0072 85.0687 38.95 86.2394 38.9068C87.41 38.8497 88.5652 38.8203 89.7081 38.8203C91.3344 38.8203 92.7768 39.0412 94.0324 39.4844C95.3019 39.9122 96.3012 40.6056 97.0301 41.5616C97.7575 42.5037 98.122 43.7454 98.122 45.2867C98.122 46.4002 97.8656 47.4056 97.3513 48.3045C96.8525 49.1894 96.2239 49.9168 95.4672 50.4883C94.7259 51.0597 93.9969 51.4226 93.2834 51.5802H93.7977C95.0533 51.6512 96.1668 51.9508 97.1367 52.479C98.122 53.0072 98.8927 53.7207 99.4486 54.6195C100.02 55.5184 100.304 56.5609 100.304 57.7454C100.304 59.6157 99.9259 61.1416 99.1691 62.3277C98.4124 63.4983 97.3498 64.4049 95.9799 65.0458C94.61 65.6744 92.99 66.1099 91.1197 66.3524C89.2649 66.5948 87.2309 66.7168 85.0178 66.7168C84.0324 66.7168 83.0842 66.6875 82.1699 66.6319C81.2571 66.5609 80.471 66.4605 79.8147 66.3323H79.8178ZM86.0046 61.1524H87.0749C88.017 61.1524 88.9374 61.1029 89.8363 61.0026C90.749 60.9022 91.5707 60.7168 92.2981 60.4466C93.0394 60.1748 93.6324 59.8041 94.0757 59.3331C94.5174 58.8481 94.7398 58.2273 94.7398 57.4705C94.7398 56.9423 94.6178 56.4929 94.3753 56.1222C94.1467 55.7377 93.8039 55.4226 93.3483 55.1802C92.8911 54.9377 92.3274 54.7585 91.6571 54.6458C91.0008 54.5315 90.2363 54.4744 89.3668 54.4744C89.1243 54.4744 88.7954 54.4821 88.3815 54.496C87.9676 54.496 87.5398 54.5099 87.0965 54.5392C86.6548 54.5531 86.2687 54.5825 85.9398 54.6242L86.0046 61.1539V61.1524ZM85.8548 49.8489C86.8818 49.8489 87.6958 49.8211 88.295 49.7639C88.8942 49.7068 89.3946 49.5863 89.793 49.3995C90.6347 49.2141 91.3838 48.8358 92.0402 48.2643C92.6965 47.679 93.0255 46.9516 93.0255 46.0805C93.0255 45.0535 92.6903 44.3029 92.0185 43.8334C91.3483 43.3624 90.4695 43.1261 89.3853 43.1261C88.7722 43.1261 88.1297 43.1616 87.4579 43.2327C86.7876 43.3037 86.2239 43.3763 85.7668 43.4473L85.8517 49.8489H85.8548Z" fill="#101828"/>
<path d="M118.205 45.6944C118.519 45.5802 118.962 45.4952 119.532 45.4381C120.117 45.3809 120.689 45.3531 121.245 45.3531C121.702 45.3531 122.209 45.3748 122.765 45.418C123.336 45.4458 123.799 45.489 124.156 45.5462C124.355 46.7879 124.513 48.0435 124.627 49.3145C124.741 50.5701 124.798 51.8118 124.798 53.0396C124.798 55.0798 124.619 57.001 124.263 58.7987C123.92 60.5964 123.342 62.1887 122.528 63.5724C121.73 64.9423 120.658 66.0126 119.317 66.7833C117.975 67.5678 116.32 67.9601 114.351 67.9601C112.224 67.9601 110.476 67.5462 109.106 66.7184C107.736 65.8767 106.666 64.7138 105.895 63.228C105.138 61.73 104.61 59.9956 104.31 58.0265C104.011 56.0419 103.861 53.9091 103.861 51.6249C103.861 50.4975 103.889 49.3562 103.946 48.1995C104.017 47.0427 104.096 45.8952 104.181 44.7524C104.51 44.7246 104.937 44.7091 105.466 44.7091C106.008 44.6952 106.5 44.6875 106.944 44.6875C107.572 44.7014 108.193 44.7446 108.806 44.8157C109.435 44.8867 109.934 44.9794 110.304 45.0937C110.19 46.1639 110.09 47.2852 110.005 48.4543C109.934 49.611 109.898 50.7601 109.898 51.9014C109.898 53.9987 110.056 55.8473 110.369 57.4458C110.683 59.0304 111.175 60.2643 111.846 61.1493C112.516 62.0342 113.395 62.4759 114.479 62.4759C115.506 62.4759 116.341 62.0759 116.984 61.2775C117.64 60.479 118.119 59.3717 118.419 57.9585C118.732 56.5315 118.89 54.8898 118.89 53.035C118.89 51.7794 118.825 50.5161 118.697 49.245C118.568 47.9601 118.405 46.7755 118.204 45.6914L118.205 45.6944Z" fill="#101828"/>
<path d="M144.638 66.718C144.624 66.5033 144.61 66.1898 144.595 65.7759C144.581 65.362 144.567 64.9481 144.551 64.5342V63.5488C144.408 63.7635 144.159 64.0477 143.802 64.4044C143.446 64.7612 142.967 65.118 142.368 65.4747C141.782 65.8315 141.061 66.1388 140.205 66.3952C139.348 66.6376 138.343 66.7597 137.186 66.7597C135.359 66.7597 133.782 66.3319 132.456 65.4747C131.143 64.6037 130.136 63.4191 129.436 61.921C128.737 60.423 128.388 58.7164 128.388 56.8044C128.388 54.8925 128.737 53.223 129.436 51.6245C130.15 50.0261 131.214 48.7349 132.627 47.7496C134.054 46.7504 135.838 46.2515 137.978 46.2515C139.12 46.2515 140.148 46.3797 141.061 46.6361C141.989 46.8925 142.766 47.2075 143.395 47.5782C144.037 47.9488 144.486 48.3133 144.743 48.6701C144.786 47.9288 144.836 47.0639 144.893 46.0801C144.964 45.0948 145.042 44.0678 145.127 42.9975C145.214 41.9272 145.291 40.9064 145.364 39.9365C145.449 38.9666 145.527 38.1311 145.6 37.4315C145.671 36.718 145.72 36.233 145.75 35.9751C146.493 35.9751 147.319 36.0183 148.233 36.1033C149.161 36.1743 149.974 36.3025 150.673 36.4894C150.417 39.7712 150.216 43.0546 150.074 46.3365C149.946 49.6044 149.853 52.9373 149.796 56.3349C149.753 59.7172 149.731 63.2353 149.731 66.8894C149.432 66.8894 148.947 66.8817 148.275 66.8678C147.619 66.8539 146.941 66.8322 146.241 66.8044C145.557 66.7766 145.021 66.7473 144.635 66.7195L144.638 66.718ZM138.729 61.3017C139.47 61.3017 140.142 61.2014 140.741 61.0021C141.354 60.8029 141.897 60.5527 142.368 60.2531C142.853 59.9396 143.266 59.6183 143.609 59.2894C143.952 58.9465 144.222 58.633 144.423 58.3473V55.6492C144.437 55.121 144.445 54.6284 144.445 54.1712C144.459 53.7141 144.473 53.3651 144.488 53.1226C144.175 52.823 143.717 52.5234 143.118 52.2237C142.533 51.9102 141.869 51.6523 141.127 51.4531C140.4 51.2384 139.643 51.1319 138.859 51.1319C137.246 51.1319 135.997 51.6106 135.112 52.5666C134.241 53.5087 133.805 54.7643 133.805 56.3349C133.805 57.9056 134.227 59.1967 135.069 60.0384C135.924 60.8801 137.146 61.3017 138.729 61.3017Z" fill="#101828"/>
<path d="M170.229 66.718C170.213 66.5033 170.199 66.1898 170.185 65.7759C170.171 65.362 170.156 64.9481 170.142 64.5342V63.5488C170 63.7635 169.75 64.0477 169.393 64.4044C169.036 64.7612 168.558 65.118 167.958 65.4747C167.373 65.8315 166.653 66.1388 165.796 66.3952C164.941 66.6376 163.934 66.7597 162.778 66.7597C160.951 66.7597 159.375 66.3319 158.046 65.4747C156.734 64.6037 155.728 63.4191 155.029 61.921C154.329 60.423 153.98 58.7164 153.98 56.8044C153.98 54.8925 154.329 53.223 155.029 51.6245C155.742 50.0261 156.805 48.7349 158.218 47.7496C159.645 46.7504 161.429 46.2515 163.571 46.2515C164.712 46.2515 165.739 46.3797 166.653 46.6361C167.58 46.8925 168.358 47.2075 168.987 47.5782C169.629 47.9488 170.079 48.3133 170.335 48.6701C170.378 47.9288 170.428 47.0639 170.485 46.0801C170.556 45.0948 170.635 44.0678 170.72 42.9975C170.806 41.9272 170.885 40.9064 170.956 39.9365C171.041 38.9666 171.12 38.1311 171.191 37.4315C171.263 36.718 171.313 36.233 171.341 35.9751C172.083 35.9751 172.911 36.0183 173.824 36.1033C174.752 36.1743 175.566 36.3025 176.266 36.4894C176.008 39.7712 175.808 43.0546 175.666 46.3365C175.537 49.6044 175.444 52.9373 175.387 56.3349C175.345 59.7172 175.324 63.2353 175.324 66.8894C175.024 66.8894 174.537 66.8817 173.867 66.8678C173.211 66.8539 172.533 66.8322 171.833 66.8044C171.149 66.7766 170.613 66.7473 170.229 66.7195V66.718ZM164.32 61.3017C165.061 61.3017 165.733 61.2014 166.332 61.0021C166.945 60.8029 167.487 60.5527 167.958 60.2531C168.445 59.9396 168.859 59.6183 169.2 59.2894C169.543 58.9465 169.815 58.633 170.014 58.3473V55.6492C170.028 55.121 170.036 54.6284 170.036 54.1712C170.049 53.7141 170.063 53.3651 170.079 53.1226C169.764 52.823 169.308 52.5234 168.707 52.2237C168.124 51.9102 167.459 51.6523 166.717 51.4531C165.989 51.2384 165.232 51.1319 164.448 51.1319C162.836 51.1319 161.586 51.6106 160.701 52.5666C159.83 53.5087 159.396 54.7643 159.396 56.3349C159.396 57.9056 159.816 59.1967 160.658 60.0384C161.515 60.8801 162.735 61.3017 164.32 61.3017Z" fill="#101828"/>
<path d="M188.541 78.0633C186.428 78.0633 184.537 77.742 182.866 77.0996C181.197 76.4571 179.841 75.7868 178.8 75.0872C178.956 74.6733 179.192 74.1451 179.506 73.5027C179.835 72.8602 180.17 72.2316 180.513 71.6185C180.869 71.0054 181.154 70.5482 181.368 70.2486C181.839 70.5482 182.468 70.8988 183.253 71.2972C184.037 71.6972 184.908 72.0463 185.864 72.3459C186.82 72.6455 187.784 72.7953 188.754 72.7953C189.867 72.7953 190.802 72.5034 191.558 71.9181C192.329 71.3328 192.95 70.5482 193.421 69.5629C193.906 68.593 194.256 67.5073 194.469 66.3088C194.698 65.1104 194.82 63.8965 194.834 62.6687C194.548 63.1969 194.128 63.7173 193.571 64.2316C193.029 64.732 192.364 65.1459 191.58 65.4733C190.809 65.7868 189.924 65.9444 188.925 65.9444C186.785 65.9444 185.121 65.3528 183.937 64.1667C182.752 62.9683 181.924 61.3482 181.453 59.3065C180.998 57.2509 180.769 54.9467 180.769 52.3922C180.769 51.4069 180.791 50.3799 180.832 49.3096C180.876 48.2393 180.927 47.1258 180.982 45.9706C181.197 45.9135 181.526 45.8779 181.968 45.864C182.425 45.8362 182.91 45.8208 183.424 45.8208C184.094 45.8208 184.751 45.8424 185.393 45.8857C186.049 45.9135 186.499 45.9567 186.741 46.0139C186.7 46.2285 186.635 46.664 186.55 47.3204C186.477 47.9629 186.414 48.7335 186.357 49.6324C186.3 50.5173 186.27 51.4301 186.27 52.3721C186.27 53.3142 186.313 54.3351 186.4 55.305C186.485 56.261 186.649 57.1397 186.891 57.9382C187.134 58.7227 187.49 59.359 187.961 59.844C188.432 60.315 189.039 60.5498 189.782 60.5498C190.795 60.5498 191.637 60.2146 192.307 59.5444C192.979 58.8586 193.492 57.8888 193.849 56.6332C194.205 55.3776 194.42 53.8934 194.491 52.1806C194.534 51.6092 194.562 51.0038 194.578 50.3613C194.605 49.7189 194.619 49.1119 194.619 48.542C194.635 47.9706 194.635 47.4857 194.619 47.0857V46.2934C194.919 46.2656 195.22 46.244 195.52 46.2285C195.819 46.2146 196.119 46.2069 196.419 46.2069C197.589 46.2069 198.717 46.3289 199.801 46.5714C199.872 48.0416 199.907 49.7405 199.907 51.6664C199.907 52.993 199.886 54.4355 199.844 55.9907C199.815 57.532 199.765 59.1166 199.694 60.7428C199.637 62.3706 199.564 63.983 199.48 65.5814C199.351 68.0077 198.873 70.1559 198.045 72.0247C197.217 73.9088 196.019 75.3853 194.449 76.4555C192.879 77.5258 190.91 78.0617 188.541 78.0617V78.0633Z" fill="#101828"/>
</g>
<defs>
<clipPath id="clip0_815_3385">
<rect width="200" height="77.9923" fill="white"/>
</clipPath>
</defs>
</svg>
