<svg width="134" height="132" viewBox="0 0 134 132" fill="none" xmlns="http://www.w3.org/2000/svg">
<mask id="mask0_931_27097" style="mask-type:luminance" maskUnits="userSpaceOnUse" x="0" y="0" width="134" height="132">
<path d="M134 0H0V132H134V0Z" fill="white"/>
</mask>
<g mask="url(#mask0_931_27097)">
<path d="M106.342 36.4197L24.2456 37.4088C19.43 37.4719 17.4409 31.7688 21.5865 29.3276C32.16 23.1194 44.1362 19.3734 56.4265 18.0687C58.1853 17.8793 59.5253 16.4061 59.5043 14.6384C59.5043 12.9548 58.2062 11.5658 56.5522 11.2501C51.6947 10.3452 48.3865 8.6406 48.3656 6.59926C48.3237 3.52672 55.7147 0.959255 64.8643 0.854031C73.9931 0.748807 81.4468 3.12687 81.4887 6.1994C81.5096 8.24075 78.2643 10.0296 73.4278 11.0397C71.7737 11.3764 70.5384 12.8075 70.5593 14.491C70.5803 16.2588 71.9622 17.6899 73.7209 17.8372C86.0112 18.8473 98.0922 22.2987 108.812 28.2543C113.042 30.6113 111.178 36.3355 106.362 36.3987L106.342 36.4197Z" fill="#D0D5DD"/>
<path d="M127.279 58.8534H126.588C123.72 58.8534 121.417 56.5175 121.417 53.6554V47.4051C121.417 44.5219 119.093 42.207 116.245 42.207H16.2056C13.3372 42.207 11.0341 44.543 11.0341 47.4051V53.6554C11.0341 56.5385 8.71 58.8534 5.8625 58.8534H5.17156C2.30313 58.8534 0 61.1894 0 64.0515V66.4296C0 68.5551 1.27719 70.4702 3.24531 71.2699L8.58437 73.4164C10.385 74.153 11.6203 75.8366 11.8716 77.7727C15.4728 108.119 31.0084 130.974 49.6637 130.974H82.7659C101.442 130.974 116.978 108.119 120.579 77.7727C120.809 75.8366 122.045 74.1319 123.866 73.4164L129.205 71.2699C131.173 70.4702 132.451 68.5761 132.451 66.4506V64.0725C132.451 61.1894 130.127 58.8745 127.279 58.8745V58.8534ZM46.3347 95.0925C51.6319 90.589 58.6459 88.1267 66.0578 88.1267C73.4697 88.1267 80.4838 90.61 85.7809 95.0925C91.2247 99.7013 94.3444 106.162 94.3444 112.812C94.3444 115.317 92.3134 117.358 89.8219 117.358C87.3303 117.358 85.2994 115.317 85.2994 112.812C85.2994 108.793 83.3941 104.963 79.9394 102.037C76.3172 98.9648 71.2503 97.2181 66.0578 97.2181C60.8653 97.2181 55.7984 98.9858 52.1763 102.037C48.7216 104.963 46.8163 108.793 46.8163 112.812C46.8163 115.317 44.7853 117.358 42.2938 117.358C39.8022 117.358 37.7713 115.317 37.7713 112.812C37.7713 106.162 40.8909 99.7013 46.3347 95.0925ZM99.5159 73.3112C99.0972 73.4375 98.6575 73.5006 98.2387 73.5006C96.2916 73.5006 94.47 72.2169 93.9047 70.2387C93.2347 67.9237 91.7272 66.1981 89.8637 65.6088C88.105 65.0406 86.1369 65.5457 84.2316 67.0609C82.2634 68.6182 79.4159 68.2604 77.8666 66.2822C76.3172 64.304 76.6731 61.4419 78.6413 59.9057C82.9125 56.5385 88.0003 55.4652 92.6275 56.9594C97.3384 58.4746 101.065 62.4942 102.594 67.6922C103.306 70.1124 101.924 72.6378 99.5369 73.3322L99.5159 73.3112Z" fill="#D0D5DD"/>
</g>
</svg>
