<svg width="36" height="36" viewBox="0 0 36 36" fill="none" xmlns="http://www.w3.org/2000/svg">
<g clip-path="url(#clip0_835_28956)">
<path d="M20.34 7.02599C19.9523 6.64863 19.4845 6.36352 18.9714 6.19185C18.4584 6.02017 17.9132 5.96634 17.3765 6.03437C16.8397 6.1024 16.3252 6.29054 15.8712 6.58479C15.4172 6.87904 15.0353 7.27184 14.754 7.73399L0.516002 30.6C0.0895673 31.2793 -0.0935357 32.0833 -0.00331522 32.8803C0.0869052 33.6773 0.445101 34.42 1.0126 34.9868C1.5801 35.5536 2.32326 35.9109 3.12035 36.0001C3.91744 36.0893 4.72121 35.9053 5.4 35.478L28.266 21.246C28.7292 20.9648 29.1229 20.5827 29.4178 20.1282C29.7128 19.6736 29.9013 19.1584 29.9693 18.6208C30.0374 18.0833 29.9832 17.5373 29.8109 17.0236C29.6386 16.5099 29.3525 16.0417 28.974 15.654L27.174 13.884C27.8143 13.6667 28.4966 13.603 29.166 13.698C30.864 13.95 33.216 13.974 34.788 12.696C35.1311 12.4199 35.4131 12.0757 35.6161 11.6849C35.8192 11.2942 35.9389 10.8656 35.9677 10.4262C35.9964 9.98681 35.9336 9.54623 35.7832 9.13237C35.6328 8.71852 35.3981 8.34041 35.094 8.02199C34.5799 7.53222 33.9658 7.15967 33.294 6.92999C34.914 4.63799 33.732 3.12599 33.294 2.68799C32.856 2.24999 31.344 1.06799 29.052 2.68799C27.936 -0.390012 25.068 -0.594012 23.556 0.887988C22.578 1.87199 22.218 3.88799 22.494 6.88799C22.5605 7.57388 22.4596 8.26566 22.2 8.90399L20.34 7.02599ZM27.654 20.226L23.226 15.792C23.113 15.679 22.9598 15.6155 22.8 15.6155C22.6402 15.6155 22.487 15.679 22.374 15.792C22.261 15.905 22.1975 16.0582 22.1975 16.218C22.1975 16.3778 22.261 16.531 22.374 16.644L26.61 20.88L21.738 23.88L18.426 20.562C18.313 20.449 18.1598 20.3855 18 20.3855C17.8402 20.3855 17.687 20.449 17.574 20.562C17.461 20.675 17.3975 20.8282 17.3975 20.988C17.3975 21.1478 17.461 21.301 17.574 21.414L20.694 24.528L13.974 28.728L11.826 26.58C11.713 26.467 11.5598 26.4035 11.4 26.4035C11.2402 26.4035 11.087 26.467 10.974 26.58C10.861 26.693 10.7975 26.8462 10.7975 27.006C10.7975 27.1658 10.861 27.319 10.974 27.432L12.924 29.4L4.764 34.452C4.31704 34.7238 3.79187 34.8381 3.27237 34.7764C2.75287 34.7148 2.26901 34.4809 1.89806 34.112C1.5271 33.7431 1.29046 33.2606 1.22592 32.7414C1.16138 32.2223 1.27266 31.6965 1.542 31.248L3.636 27.882L4.974 29.226C5.08698 29.339 5.24022 29.4024 5.4 29.4024C5.55978 29.4024 5.71302 29.339 5.826 29.226C5.93898 29.113 6.00246 28.9598 6.00246 28.8C6.00246 28.6402 5.93898 28.487 5.826 28.374L4.284 26.838L9.384 18.636L12.774 22.026C12.8299 22.0819 12.8964 22.1263 12.9695 22.1566C13.0425 22.1869 13.1209 22.2024 13.2 22.2024C13.2791 22.2024 13.3575 22.1869 13.4306 22.1566C13.5036 22.1263 13.5701 22.0819 13.626 22.026C13.6819 21.97 13.7263 21.9036 13.7566 21.8305C13.7869 21.7574 13.8025 21.6791 13.8025 21.6C13.8025 21.5209 13.7869 21.4425 13.7566 21.3694C13.7263 21.2963 13.6819 21.2299 13.626 21.174L10.026 17.574L13.362 12.21L16.362 15.024C16.4801 15.1197 16.6301 15.1671 16.7817 15.1565C16.9334 15.1459 17.0753 15.0781 17.1789 14.9669C17.2825 14.8557 17.3401 14.7093 17.3399 14.5573C17.3397 14.4053 17.2819 14.259 17.178 14.148L13.992 11.148L15.744 8.32799C15.9299 8.01912 16.183 7.75611 16.4845 7.55848C16.786 7.36085 17.1282 7.23368 17.4856 7.18641C17.8429 7.13914 18.2064 7.173 18.5489 7.28545C18.8914 7.39791 19.2042 7.58608 19.464 7.83599L28.128 16.506C28.3754 16.7645 28.5618 17.075 28.6737 17.4148C28.7856 17.7547 28.82 18.1152 28.7746 18.4701C28.7292 18.825 28.605 19.1652 28.4111 19.4659C28.2172 19.7666 27.9585 20.0202 27.654 20.208V20.226ZM23.73 6.78599C23.502 4.27799 23.76 2.44799 24.45 1.76399C24.8089 1.40529 25.2956 1.20379 25.803 1.20379C26.3104 1.20379 26.7971 1.40529 27.156 1.76399C27.6979 2.34484 28.0605 3.06993 28.2 3.85199C28.2203 3.95321 28.2664 4.04748 28.3339 4.12567C28.4013 4.20386 28.4878 4.26332 28.5849 4.29832C28.682 4.33331 28.7866 4.34264 28.8884 4.32542C28.9902 4.30819 29.0858 4.26499 29.166 4.19999C29.94 3.49799 31.392 2.47799 32.484 3.56399C33.576 4.64999 32.562 6.11399 31.884 6.88799C31.8131 6.96602 31.7641 7.06136 31.7417 7.16439C31.7194 7.26743 31.7246 7.37452 31.7569 7.47489C31.7891 7.57526 31.8472 7.66537 31.9254 7.73613C32.0035 7.8069 32.0989 7.85582 32.202 7.87799C32.9829 8.01548 33.7088 8.37119 34.296 8.90399C34.4809 9.10363 34.6227 9.33924 34.7126 9.59613C34.8024 9.85302 34.8382 10.1257 34.818 10.397C34.7977 10.6684 34.7217 10.9327 34.5947 11.1734C34.4678 11.4141 34.2925 11.626 34.08 11.796C32.778 12.852 30.582 12.714 29.382 12.54C28.3349 12.3971 27.2688 12.5574 26.31 13.002L25.188 11.874C26.916 10.716 29.262 10.632 30.588 10.71C30.7452 10.7163 30.8987 10.6606 31.0153 10.5551C31.132 10.4495 31.2027 10.3023 31.2121 10.1453C31.2215 9.9882 31.169 9.83368 31.0658 9.71491C30.9625 9.59613 30.8169 9.52256 30.66 9.50999C29.4732 9.43883 28.2823 9.52967 27.12 9.77999L29.55 7.37999C29.6059 7.32405 29.6503 7.25763 29.6806 7.18454C29.7109 7.11144 29.7265 7.0331 29.7265 6.95399C29.7265 6.87487 29.7109 6.79653 29.6806 6.72344C29.6503 6.65035 29.6059 6.58393 29.55 6.52799C29.4941 6.47205 29.4276 6.42767 29.3546 6.39739C29.2815 6.36712 29.2031 6.35153 29.124 6.35153C29.0449 6.35153 28.9665 6.36712 28.8935 6.39739C28.8204 6.42767 28.7539 6.47205 28.698 6.52799L26.298 8.95799C26.5529 7.79637 26.6458 6.60507 26.574 5.41799C26.5606 5.26237 26.4871 5.11809 26.3691 5.01571C26.2512 4.91332 26.098 4.86086 25.942 4.86944C25.7861 4.87802 25.6396 4.94696 25.5335 5.06166C25.4275 5.17637 25.3703 5.32784 25.374 5.48399C25.452 6.81599 25.374 9.16199 24.21 10.884L23.172 9.84599C23.6472 8.90045 23.8408 7.83838 23.73 6.78599Z" fill="#16B364"/>
<path d="M19.566 16.362C19.4479 16.2663 19.2979 16.2189 19.1463 16.2295C18.9946 16.2401 18.8527 16.3078 18.7491 16.4191C18.6455 16.5303 18.5879 16.6767 18.5881 16.8287C18.5883 16.9807 18.6461 17.127 18.75 17.238C19.35 17.808 19.488 18 19.8 18C19.9202 17.9996 20.0375 17.9631 20.1367 17.8952C20.2358 17.8274 20.3124 17.7313 20.3563 17.6195C20.4003 17.5076 20.4097 17.3852 20.3832 17.2679C20.3568 17.1507 20.2957 17.0441 20.208 16.962L19.566 16.362ZM9.426 24.174C9.37006 24.118 9.30364 24.0737 9.23055 24.0434C9.15746 24.0131 9.07912 23.9975 9 23.9975C8.92088 23.9975 8.84254 24.0131 8.76945 24.0434C8.69636 24.0737 8.62994 24.118 8.574 24.174C8.51806 24.2299 8.47368 24.2963 8.4434 24.3694C8.41313 24.4425 8.39754 24.5209 8.39754 24.6C8.39754 24.6791 8.41313 24.7574 8.4434 24.8305C8.47368 24.9036 8.51806 24.97 8.574 25.026C9.21 25.662 9.288 25.8 9.6 25.8C9.71917 25.8007 9.83586 25.7659 9.93517 25.7C10.0345 25.6341 10.1119 25.5401 10.1576 25.4301C10.2033 25.32 10.2152 25.1988 10.1918 25.082C10.1683 24.9651 10.1106 24.8579 10.026 24.774L9.426 24.174Z" fill="#16B364"/>
</g>
<defs>
<clipPath id="clip0_835_28956">
<rect width="36" height="36" fill="white"/>
</clipPath>
</defs>
</svg>
