<svg width="36" height="36" viewBox="0 0 36 36" fill="none" xmlns="http://www.w3.org/2000/svg">
<path d="M34.8654 18.9051C35.6081 17.8406 36 16.6106 36 15.3483C36 12.5751 34.1059 10.0034 31.1742 8.79745C30.0923 8.35223 29.2591 7.49174 28.9446 6.49661C28.1441 3.95847 26.3237 2.51545 23.3789 2.08478C20.9292 1.72661 18.6287 2.51959 17.376 4.15513C16.881 4.80201 15.7486 5.06181 14.6286 4.78823C13.7417 4.57237 12.8189 4.45755 11.8853 4.44988C11.8518 4.44988 11.8194 4.44932 11.7856 4.44932C7.64318 4.44932 4.22262 6.66444 3.63291 9.74252C3.42773 10.8129 3.5538 11.8821 4.00838 12.9206C4.54612 14.1513 4.0578 15.4779 2.69986 16.4689C0.959414 17.7403 0 19.4234 0 21.2079C0 23.5754 3.43266 25.2607 6.31195 26.2574C8.08622 26.8705 9.2527 28.0543 9.51166 29.4946L9.52678 29.5778C10.078 32.4114 13.0603 34.4 16.6871 34.4C16.8088 34.4 16.9313 34.3975 17.0549 34.3928C19.8078 34.2921 22.4448 33.1275 24.1109 31.2777C24.6239 30.7083 25.4507 30.3908 26.1738 30.4962C27.4265 30.675 28.7035 30.5798 29.9718 30.2079C32.9093 29.348 35.1496 26.9985 35.5479 24.3607C35.752 23.0096 35.496 21.686 34.8071 20.5333C34.5006 20.0197 34.5226 19.3956 34.8654 18.9051ZM34.3614 24.1813C34.0321 26.3665 32.1325 28.3248 29.6345 29.0557C28.5334 29.3784 27.4246 29.4643 26.3455 29.3084H26.3447C25.2298 29.1479 24.0024 29.6064 23.2199 30.4746C21.7672 32.0873 19.4466 33.1044 17.0113 33.1939C13.8329 33.3181 11.1618 31.6937 10.6949 29.2914C10.3554 27.4019 8.90114 25.8823 6.70493 25.1225C3.258 23.9305 1.19995 22.4666 1.19995 21.2075C1.19995 19.817 1.98415 18.4778 3.40798 17.4384C5.22485 16.1113 5.87573 14.1961 5.10785 12.4399C4.75207 11.6281 4.65244 10.7969 4.81198 9.96913C5.29263 7.4563 8.21777 5.64955 11.784 5.64955C11.8147 5.64955 11.8446 5.65012 11.8746 5.65012C12.7159 5.65806 13.5467 5.76051 14.3443 5.95499C15.9379 6.34389 17.5399 5.91435 18.3288 4.88659C19.3165 3.5965 21.1825 2.97965 23.2057 3.27292C25.6838 3.63552 27.1434 4.7748 27.7998 6.85865C28.2198 8.18988 29.3112 9.32943 30.7178 9.90845C33.1974 10.9282 34.8 13.0642 34.8 15.3491C34.8 16.3648 34.4828 17.3574 33.8816 18.219C33.2652 19.1034 33.2251 20.226 33.7772 21.1494C34.321 22.059 34.5234 23.1079 34.3614 24.1813V24.1813Z" fill="#16B364"/>
<path d="M22.5 10.4001C18.0335 10.4001 14.4 14.033 14.4 18.5C14.4 22.9668 18.0335 26.6 22.5 26.6C26.9665 26.6 30.6 22.9663 30.6 18.5C30.6 14.0336 26.9665 10.4001 22.5 10.4001ZM22.5 25.4C18.6954 25.4 15.6 22.3046 15.6 18.5C15.6 14.6952 18.6955 11.5998 22.5 11.5998C26.3045 11.5998 29.4 14.6952 29.4 18.5C29.4 22.3046 26.3045 25.4 22.5 25.4Z" fill="#16B364"/>
<path d="M22.5 12.8C21.9318 12.7997 21.3667 12.8842 20.8235 13.0508C20.5068 13.1485 20.3291 13.4845 20.4263 13.8009C20.4733 13.9529 20.5787 14.0801 20.7193 14.1545C20.8599 14.229 21.0243 14.2446 21.1764 14.198C21.6052 14.0662 22.0514 13.9994 22.5 14C22.8318 14 23.0998 13.7317 23.0998 13.3999C23.0998 13.0681 22.8318 12.8 22.5 12.8ZM18.8273 14.1409C17.5385 15.2274 16.8 16.8158 16.8 18.5C16.8 18.5788 16.8154 18.6569 16.8456 18.7298C16.8757 18.8026 16.9199 18.8688 16.9756 18.9245C17.0314 18.9803 17.0976 19.0245 17.1704 19.0546C17.2433 19.0847 17.3213 19.1002 17.4002 19.1001C17.479 19.1002 17.557 19.0847 17.6298 19.0545C17.7026 19.0244 17.7688 18.9802 17.8245 18.9244C17.8802 18.8687 17.9244 18.8025 17.9545 18.7297C17.9846 18.6569 18.0001 18.5788 18 18.5C18 17.1704 18.5839 15.9163 19.6007 15.059C19.8539 14.8454 19.8863 14.4669 19.6729 14.2137C19.6222 14.1534 19.5601 14.1036 19.4901 14.0673C19.4202 14.031 19.3437 14.0089 19.2652 14.0021C19.1867 13.9953 19.1076 14.0041 19.0324 14.0279C18.9573 14.0518 18.8876 14.0901 18.8273 14.1409ZM9.9547 7.75569C9.81956 7.45327 9.46603 7.31785 9.16256 7.45102C7.89722 8.01437 6.86587 8.89573 6.09848 10.0719C5.91665 10.3495 5.99526 10.7208 6.27236 10.9021C6.33828 10.9452 6.41204 10.9749 6.48943 10.9895C6.56682 11.0041 6.64633 11.0033 6.72341 10.9871C6.80049 10.971 6.87363 10.9398 6.93866 10.8954C7.00369 10.8509 7.05933 10.7941 7.1024 10.7282C7.74126 9.74884 8.59872 9.01576 9.64983 8.54776C9.9528 8.41262 10.0884 8.05754 9.9547 7.75569ZM11.7906 7.99707C12.564 7.92324 13.104 7.99264 13.1171 7.99405C13.1454 7.9982 13.1729 8.00009 13.2006 8.00009C13.4945 8.00009 13.7519 7.78395 13.7939 7.484C13.8403 7.15578 13.6115 6.85231 13.2833 6.80591C13.2559 6.80232 12.6049 6.71359 11.6743 6.80309C11.3442 6.83473 11.103 7.12836 11.1355 7.4582C11.1671 7.78747 11.4571 8.02808 11.7905 7.99707H11.7906ZM15.5256 30.1537L15.4361 30.1639C14.038 30.3169 12.7631 29.3636 12.5255 27.9889C12.4689 27.6618 12.1583 27.4459 11.8325 27.5C11.7549 27.5133 11.6806 27.5418 11.614 27.5838C11.5474 27.6259 11.4897 27.6807 11.4443 27.745C11.3988 27.8094 11.3665 27.8821 11.3492 27.9589C11.3319 28.0358 11.3299 28.1153 11.3434 28.1929C11.6639 30.0494 13.2868 31.3801 15.1438 31.3801C15.2866 31.3801 15.4313 31.3724 15.577 31.3562L15.6747 31.3447C16.0038 31.304 16.237 31.0038 16.1957 30.675C16.1862 30.5967 16.1612 30.5211 16.1223 30.4524C16.0834 30.3838 16.0313 30.3235 15.9691 30.2751C15.9068 30.2266 15.8356 30.191 15.7595 30.1701C15.6834 30.1493 15.6039 30.1437 15.5256 30.1537ZM11.6886 27.1111C11.9713 26.9383 12.06 26.5695 11.8867 26.2863C11.2978 25.3236 10.545 24.8564 10.5126 24.8372C10.2313 24.662 9.86076 24.7532 9.68801 25.0358C9.64677 25.1029 9.61919 25.1775 9.60686 25.2553C9.59452 25.3332 9.59766 25.4127 9.61611 25.4893C9.63456 25.5659 9.66794 25.6381 9.71435 25.7017C9.76077 25.7654 9.81929 25.8193 9.88657 25.8603C9.89205 25.8638 10.4304 26.2058 10.8636 26.9133C10.9172 27.001 10.9925 27.0734 11.0822 27.1236C11.1719 27.1739 11.273 27.2002 11.3758 27.2C11.4863 27.2 11.5946 27.1692 11.6886 27.1111Z" fill="#16B364"/>
</svg>
