<svg width="36" height="36" viewBox="0 0 36 36" fill="none" xmlns="http://www.w3.org/2000/svg">
<g clip-path="url(#clip0_835_29866)">
<path d="M34.8473 8.0986C34.6126 7.9463 34.3959 7.76807 34.2011 7.56727L35.6809 6.19991C35.7081 6.17528 35.7328 6.14816 35.7549 6.11893C35.8886 5.94068 35.97 5.72873 35.99 5.50682C36.0101 5.2849 35.9679 5.0618 35.8682 4.86251C35.7686 4.66322 35.6154 4.49562 35.4259 4.37849C35.2363 4.26136 35.0179 4.19934 34.7951 4.19936H31.6576C31.0958 1.74515 28.9141 0.00379625 26.3963 0H13.1987C13.0396 0 12.887 0.0632013 12.7745 0.1757C12.662 0.288199 12.5988 0.440781 12.5988 0.599878C12.5988 0.758976 12.662 0.911557 12.7745 1.02406C12.887 1.13655 13.0396 1.19976 13.1987 1.19976H26.3963C28.251 1.20419 29.8839 2.42264 30.4158 4.19936H22.3771C16.672 4.18178 10.7785 4.16751 5.83466 7.51067C2.07272 10.0519 0.000808287 14.2033 0.000808287 19.1968C-0.0157015 20.917 0.220789 22.6302 0.702693 24.2816C0.639249 24.3745 0.603796 24.4836 0.600546 24.596C0.601382 24.7196 0.640566 24.8398 0.712685 24.9402C0.784804 25.0405 0.886301 25.116 1.00316 25.1562C4.5973 34.8075 16.9738 35.9941 22.797 35.9941C28.897 35.9941 32.9953 33.5121 32.9953 31.1949C32.9923 30.166 32.3154 29.2609 31.3295 28.9667C31.3121 28.6206 31.2597 28.2771 31.173 27.9416C30.997 27.4409 30.7208 26.9814 30.3612 26.5911C30.0698 26.2529 29.7114 25.9788 29.3087 25.7861C28.906 25.5934 28.4677 25.4864 28.0215 25.4717H28.0083C27.5647 25.4895 27.1294 25.5976 26.7289 25.7892C26.5833 25.457 26.3591 25.1652 26.0756 24.939C25.7564 24.7138 25.3886 24.567 25.0021 24.5105C24.6156 24.454 24.2212 24.4894 23.851 24.6138C22.0555 25.0626 21.6381 27.3597 21.3026 29.2056C21.1658 29.9583 20.9595 31.0958 20.7286 31.2578C20.2485 31.4979 16.6623 31.6818 13.5579 30.0317C12.326 29.3973 11.2674 28.4721 10.4738 27.3363L11.3797 27.0362L14.1752 28.1553C14.3223 28.2106 14.4852 28.2061 14.629 28.1427C14.7727 28.0793 14.8859 27.9621 14.9442 27.8161C15.0025 27.6702 15.0012 27.5073 14.9407 27.3623C14.8801 27.2173 14.7651 27.1018 14.6204 27.0406L11.6207 25.8408C11.4891 25.7886 11.3432 25.7843 11.2088 25.8287L9.86319 26.2774C9.75319 26.0518 9.65304 25.8214 9.56301 25.5871L11.4227 24.6553L14.1721 25.7554C14.27 25.7945 14.3763 25.8071 14.4806 25.7921C14.5849 25.777 14.6833 25.7348 14.7661 25.6696C14.8488 25.6044 14.9129 25.5186 14.952 25.4207C14.991 25.3229 15.0037 25.2165 14.9886 25.1123C14.9736 25.008 14.9313 24.9096 14.8662 24.8268C14.801 24.7441 14.7151 24.68 14.6173 24.6411L11.6177 23.441C11.539 23.4099 11.4547 23.3956 11.3702 23.3992C11.2856 23.4027 11.2028 23.424 11.127 23.4615L9.19582 24.4274C9.10795 24.0618 9.03933 23.692 8.99019 23.3193C8.98548 23.2828 8.98548 23.2474 8.98105 23.2108L11.3988 22.2426L14.1757 23.3536C14.4835 23.4764 14.8328 23.3265 14.9556 23.0189C14.9848 22.9457 14.9994 22.8675 14.9984 22.7887C14.9974 22.7099 14.9809 22.632 14.9498 22.5596C14.9187 22.4872 14.8737 22.4216 14.8173 22.3666C14.7608 22.3116 14.6941 22.2682 14.6209 22.239L11.6213 21.0392C11.4784 20.9826 11.3193 20.9826 11.1763 21.0392L8.93444 21.9388C8.94534 20.5153 9.49696 19.1491 10.4776 18.1171C11.8283 16.9286 13.5472 16.2417 15.345 16.172L19.7506 20.027L19.206 23.2965C19.193 23.3743 19.1954 23.4538 19.2132 23.5305C19.231 23.6073 19.2637 23.6798 19.3096 23.7439C19.3553 23.808 19.4133 23.8625 19.4801 23.9042C19.5469 23.9459 19.6213 23.974 19.699 23.9869C19.7313 23.9929 19.7644 23.996 19.7973 23.996C19.9391 23.9959 20.0763 23.9455 20.1845 23.8538C20.2927 23.7621 20.3649 23.635 20.3883 23.4951L20.9883 19.8957C21.0051 19.7948 20.9958 19.6913 20.9613 19.5951C20.9269 19.4988 20.8684 19.413 20.7914 19.3457L17.0978 16.114H17.6888L23.3368 19.5009L22.8049 22.6973C22.7919 22.775 22.7944 22.8545 22.8121 22.9312C22.8299 23.008 22.8626 23.0805 22.9083 23.1446C22.9541 23.2087 23.0121 23.2632 23.0789 23.3049C23.1457 23.3466 23.2201 23.3747 23.2978 23.3877C23.3306 23.3934 23.3637 23.3963 23.397 23.3962C23.5387 23.396 23.6758 23.3456 23.784 23.2539C23.8921 23.1622 23.9642 23.0352 23.9876 22.8953L24.5877 19.2957C24.6076 19.177 24.5912 19.055 24.5408 18.9457C24.4904 18.8363 24.4083 18.7447 24.305 18.6827L20.0554 16.1325H20.7428C20.7584 16.1434 20.7747 16.1533 20.7914 16.1627L26.9361 18.3941L26.4048 22.1135C26.3898 22.2178 26.4025 22.3241 26.4417 22.4219C26.4809 22.5197 26.5452 22.6054 26.628 22.6704C26.7108 22.7355 26.8092 22.7777 26.9135 22.7926C27.0177 22.8075 27.124 22.7947 27.2218 22.7555C27.3196 22.7164 27.4053 22.6522 27.4704 22.5694C27.5355 22.4866 27.5776 22.3881 27.5925 22.2838L28.1925 18.0847C28.2121 17.9483 28.1841 17.8093 28.1133 17.6911C28.0425 17.5729 27.9332 17.4826 27.8037 17.4355L23.8899 16.0124C25.8093 15.9181 27.7097 15.5866 29.5477 15.0252C31.0482 14.5487 32.4505 13.8053 33.687 12.8308C34.4324 12.0324 35.1291 11.19 35.7735 10.3082C35.9232 10.1012 36.0025 9.85161 35.9998 9.59618C35.9971 9.34075 35.9124 9.09294 35.7583 8.88921C35.495 8.58247 35.1881 8.31609 34.8473 8.0986ZM24.142 25.7777C24.3358 25.7045 24.5436 25.6759 24.75 25.694C24.9563 25.712 25.156 25.7763 25.3341 25.8821C25.6288 26.1779 25.795 26.5781 25.7966 26.9956C25.7942 27.157 25.855 27.313 25.966 27.4302C26.0769 27.5474 26.2293 27.6167 26.3906 27.6231C26.5288 27.628 26.6642 27.5828 26.7718 27.496C26.8794 27.4091 26.9521 27.2864 26.9766 27.1502C26.9862 27.1129 26.9927 27.0744 26.9964 27.0357C27.2902 26.8177 27.6418 26.691 28.0072 26.6716H28.0124C28.2915 26.6864 28.5646 26.7579 28.8152 26.8817C29.0657 27.0055 29.2885 27.179 29.4698 27.3916C29.7107 27.6497 29.8994 27.9519 30.0254 28.2817C30.0739 28.5832 30.1072 28.8866 30.1253 29.1911C30.084 29.3347 30.0976 29.4885 30.1637 29.6226C30.2297 29.7566 30.3433 29.8612 30.4823 29.9159C31.4673 30.3047 31.7955 30.5434 31.7955 31.195C31.7955 32.4461 28.7264 34.7751 22.8618 34.7944C22.2965 34.6603 21.8039 34.3149 21.4851 33.8292C21.372 33.5667 21.3153 33.2834 21.3189 32.9976C21.3225 32.7118 21.3863 32.43 21.506 32.1704C22.0701 31.6904 22.2565 30.6705 22.4839 29.4221C22.7574 27.9139 23.0969 26.0386 24.142 25.7777ZM32.9294 11.8954C31.805 12.7786 30.5309 13.4523 29.168 13.8842C26.837 14.551 24.4258 14.8959 22.0014 14.9093C21.8067 14.917 21.6093 14.9153 21.4124 14.9195C20.7429 14.6789 19.1976 13.8578 19.1976 11.3981C19.1988 11.3186 19.1842 11.2396 19.1546 11.1657C19.125 11.0919 19.081 11.0246 19.0252 10.968C18.9694 10.9113 18.9028 10.8663 18.8294 10.8355C18.7561 10.8048 18.6773 10.789 18.5977 10.789C18.5182 10.789 18.4394 10.8048 18.366 10.8355C18.2926 10.8663 18.2261 10.9113 18.1703 10.968C18.1144 11.0246 18.0705 11.0919 18.0409 11.1657C18.0113 11.2396 17.9966 11.3186 17.9979 11.3981C17.9494 12.6995 18.4168 13.9675 19.2984 14.926C19.1784 14.926 19.0584 14.926 18.9384 14.9225C17.8646 14.9087 16.7511 14.8937 15.6463 14.9447C13.4282 14.9671 11.293 15.7908 9.6345 17.2638C8.1425 18.7379 7.47493 21.0019 7.80555 23.4753C7.97321 25.0776 8.53651 26.613 9.44479 27.9436C10.3531 29.2741 11.5778 30.358 13.0089 31.0978C15.2167 32.2254 17.6888 32.7335 20.1623 32.568C20.0439 33.1935 20.1395 33.8405 20.4339 34.4049C20.5002 34.5222 20.5759 34.6339 20.6602 34.7391C17.1808 34.559 12.4943 33.8848 8.59257 31.784C8.95673 31.3089 9.27386 30.7998 9.5391 30.2632C9.61019 30.1207 9.6218 29.9559 9.57139 29.8049C9.52097 29.6539 9.41266 29.5292 9.27027 29.458C9.19977 29.4228 9.12302 29.4018 9.04441 29.3963C8.96581 29.3908 8.88688 29.4008 8.81214 29.4257C8.7374 29.4507 8.66831 29.4902 8.60881 29.5418C8.54932 29.5935 8.50058 29.6564 8.4654 29.7269C8.21419 30.2399 7.90753 30.7239 7.55092 31.1702C5.21593 29.7534 3.38326 27.6409 2.31019 25.1293C3.72753 25.0296 5.10337 24.6075 6.33275 23.8952C6.42034 23.8367 6.491 23.7562 6.53761 23.6618C6.58423 23.5673 6.60515 23.4623 6.59827 23.3572C6.59148 23.2521 6.55715 23.1507 6.49872 23.0631C6.44029 22.9755 6.35983 22.9048 6.26542 22.8581C6.17101 22.8115 6.06598 22.7905 5.9609 22.7973C5.85582 22.8041 5.75438 22.8385 5.66679 22.897C4.50404 23.5398 3.2081 23.9043 1.88073 23.9619C1.41445 22.4171 1.1851 20.8104 1.20049 19.1968C1.20078 18.4628 1.25322 17.7296 1.35705 17.0029C2.69431 17.7419 4.19829 18.1266 5.72612 18.1206C6.25286 18.1203 6.77865 18.0761 7.29805 17.9885C7.40442 17.9741 7.50498 17.9314 7.58924 17.8649C7.67349 17.7984 7.73835 17.7105 7.77704 17.6104C7.81573 17.5102 7.82684 17.4016 7.8092 17.2957C7.79156 17.1898 7.74582 17.0906 7.67676 17.0084C7.60774 16.9262 7.51792 16.864 7.41668 16.8283C7.31543 16.7926 7.20646 16.7847 7.10114 16.8055C5.19668 17.1432 3.23458 16.7638 1.59348 15.7402C2.24597 12.7881 4.00465 10.1982 6.50794 8.50283C6.67631 8.38894 6.84932 8.28645 7.02064 8.18015C6.87427 9.92839 7.38065 12.2895 10.0096 13.1672C10.1607 13.2174 10.3256 13.2055 10.4679 13.1342C10.6103 13.0629 10.7185 12.9379 10.7688 12.7868C10.8738 12.4721 10.7032 12.1321 10.3885 12.0275C7.59486 11.0963 8.22124 7.99181 8.35552 7.44283C12.2801 5.53761 16.7873 5.3937 21.2305 5.3937H23.5073L30.5956 5.39918V7.19868C30.5938 8.85462 29.252 10.1964 27.596 10.1983C27.437 10.1983 27.2844 10.2615 27.172 10.374C27.0595 10.4865 26.9963 10.639 26.9963 10.7981C26.9963 10.8769 27.0118 10.9549 27.0419 11.0277C27.072 11.1004 27.1162 11.1666 27.1719 11.2223C27.2276 11.278 27.2937 11.3222 27.3665 11.3524C27.4393 11.3826 27.5173 11.3981 27.596 11.3981C29.9144 11.3953 31.793 9.51699 31.7954 7.19868V5.39616H34.7829L33.3079 6.75909C33.2818 6.78404 33.2576 6.81097 33.2354 6.83951C33.0804 7.04753 32.9967 7.3 32.9967 7.55939C32.9967 7.81879 33.0804 8.07126 33.2354 8.27927C33.4993 8.5874 33.8069 8.85517 34.1484 9.07403C34.3835 9.22657 34.6008 9.4049 34.7963 9.60571C34.2709 10.3326 33.1112 11.7309 32.9294 11.8954H32.9294Z" fill="#16B364"/>
<path d="M23.9968 6.59894C23.0029 6.59894 22.1972 7.40466 22.1972 8.3985C22.1972 9.39256 23.0029 10.1983 23.9968 10.1983C24.9908 10.1983 25.7965 9.39263 25.7965 8.3985C25.7965 7.40466 24.9909 6.59894 23.9968 6.59894ZM23.9968 8.99852C23.918 8.9985 23.84 8.98297 23.7672 8.9528C23.6944 8.92264 23.6283 8.87844 23.5726 8.82272C23.5169 8.767 23.4728 8.70086 23.4426 8.62808C23.4125 8.55529 23.397 8.47728 23.397 8.3985C23.3971 8.27986 23.4323 8.16388 23.4982 8.06525C23.5641 7.96662 23.6579 7.88975 23.7675 7.84437C23.8771 7.799 23.9977 7.78714 24.1141 7.81032C24.2304 7.83349 24.3373 7.89065 24.4212 7.97456C24.5051 8.05848 24.5622 8.16538 24.5853 8.28175C24.6084 8.39812 24.5965 8.51873 24.5511 8.62834C24.5056 8.73794 24.4287 8.83161 24.3301 8.8975C24.2314 8.96339 24.1154 8.99855 23.9968 8.99852ZM24.6596 33.2628C24.6948 33.3333 24.7436 33.3961 24.8031 33.4478C24.8626 33.4995 24.9317 33.5389 25.0065 33.5638C25.0813 33.5888 25.1603 33.5989 25.2389 33.5933C25.3176 33.5877 25.3944 33.5667 25.4649 33.5314L29.0642 31.7318C29.2066 31.6607 29.3149 31.5359 29.3653 31.3849C29.4157 31.2339 29.4041 31.0691 29.333 30.9267C29.2619 30.7843 29.1371 30.676 28.9861 30.6255C28.8351 30.5751 28.6703 30.5867 28.5279 30.6578L24.9285 32.4576C24.8579 32.4928 24.795 32.5416 24.7434 32.6011C24.6917 32.6606 24.6522 32.7297 24.6273 32.8045C24.6023 32.8793 24.5923 32.9582 24.5979 33.0368C24.6034 33.1155 24.6244 33.1922 24.6596 33.2628ZM23.9968 31.7947C24.0956 31.7949 24.193 31.7705 24.2802 31.724C24.3674 31.6774 24.4417 31.61 24.4966 31.5278L25.6964 29.728C25.7548 29.6404 25.7892 29.5389 25.796 29.4338C25.8028 29.3288 25.7818 29.2237 25.7352 29.1293C25.6885 29.0349 25.6179 28.9544 25.5302 28.896C25.4426 28.8376 25.3412 28.8033 25.2361 28.7965C25.131 28.7896 25.0259 28.8105 24.9314 28.8572C24.837 28.9038 24.7565 28.9746 24.6981 29.0623L23.4983 30.8618C23.4381 30.9521 23.4035 31.0571 23.3982 31.1655C23.3928 31.2739 23.417 31.3818 23.4681 31.4775C23.5193 31.5733 23.5955 31.6534 23.6886 31.7092C23.7817 31.7651 23.8882 31.7946 23.9968 31.7947Z" fill="#16B364"/>
</g>
<defs>
<clipPath id="clip0_835_29866">
<rect width="36" height="36" fill="white"/>
</clipPath>
</defs>
</svg>
