<svg width="64" height="67" viewBox="0 0 64 67" fill="none" xmlns="http://www.w3.org/2000/svg">
<g clip-path="url(#clip0_815_3409)">
<path d="M46.6363 12.7938L8.76294 22.9421C6.539 23.5382 4.94827 21.1521 6.58688 19.5352C10.7506 15.424 15.8564 12.2842 21.3838 10.2363C22.1714 9.94442 22.6239 9.10736 22.4062 8.29809C22.1977 7.52125 21.4425 7.03322 20.6409 7.08728C18.2826 7.24635 16.5591 6.84481 16.3089 5.91199C15.9321 4.50504 19.0456 2.45098 23.2649 1.31894C27.4811 0.188437 31.2077 0.410831 31.5846 1.81778C31.8348 2.7506 30.5421 3.95986 28.4216 5.00234C27.7004 5.356 27.2896 6.15755 27.4981 6.93438C27.7158 7.74519 28.5267 8.24403 29.3529 8.10195C35.1629 7.11199 41.1537 7.27724 46.8155 8.75523C49.044 9.33747 48.8602 12.1977 46.6348 12.7938H46.6363Z" fill="#16B364"/>
<path d="M60.7877 32.4786H60.4587C59.0934 32.4786 57.9876 31.3728 57.9876 30.0076V27.0423C57.9876 25.6771 56.8819 24.5713 55.5166 24.5713H7.74363C6.37838 24.5713 5.27259 25.6771 5.27259 27.0423V30.0076C5.27259 31.3728 4.1668 32.4786 2.80154 32.4786H2.47104C1.10579 32.4786 0 33.5844 0 34.9497V36.0771C0 37.0871 0.614672 37.9968 1.55367 38.3721L4.10193 39.3914C4.96525 39.7373 5.55676 40.5389 5.66795 41.464C7.38378 55.8871 14.8046 66.7458 23.722 66.7458H39.5367C48.4541 66.7458 55.8749 55.8856 57.5923 41.464C57.7019 40.5404 58.2934 39.7373 59.1583 39.3929L61.705 38.3736C62.644 37.9983 63.2587 37.0902 63.2587 36.0786V34.9512C63.2587 33.586 62.1529 32.4802 60.7877 32.4802V32.4786ZM40.973 56.9744C38.4386 59.1118 35.0934 60.2887 31.5521 60.2887C28.0108 60.2887 24.6656 59.1118 22.1313 56.9744C19.5305 54.7798 18.0386 51.7095 18.0386 48.5512C18.0386 47.3574 19.007 46.3891 20.2008 46.3891C21.3946 46.3891 22.3629 47.3574 22.3629 48.5512C22.3629 50.4601 23.271 52.2779 24.9205 53.6694C26.6502 55.1273 29.0672 55.9643 31.5521 55.9643C34.0371 55.9643 36.4556 55.1273 38.1853 53.6694C39.8348 52.2779 40.7413 50.4601 40.7413 48.5512C40.7413 47.3574 41.7097 46.3891 42.9035 46.3891C44.0973 46.3891 45.0656 47.3574 45.0656 48.5512C45.0656 51.7095 43.5737 54.7798 40.973 56.9744ZM47.529 39.3512C47.3251 39.4114 47.1197 39.4392 46.9174 39.4392C45.983 39.4392 45.1212 38.8292 44.8448 37.8871C44.522 36.7921 43.8008 35.969 42.9158 35.6863C42.071 35.4161 41.1398 35.6524 40.2224 36.3721C39.2819 37.1087 37.9228 36.9435 37.1861 36.0045C36.4494 35.0655 36.6147 33.7064 37.5537 32.9697C39.5907 31.3728 42.0263 30.8616 44.2332 31.569C46.4849 32.2902 48.2641 34.196 48.9915 36.667C49.3282 37.813 48.6734 39.0145 47.5274 39.3512H47.529Z" fill="#16B364"/>
</g>
<defs>
<clipPath id="clip0_815_3409">
<rect width="64" height="67" fill="white"/>
</clipPath>
</defs>
</svg>
