<svg width="36" height="36" viewBox="0 0 36 36" fill="none" xmlns="http://www.w3.org/2000/svg">
<g clip-path="url(#clip0_931_27510)">
<path d="M3.50999e-05 35.3998C3.50999e-05 35.559 0.0632489 35.7116 0.17577 35.8241C0.288292 35.9366 0.440903 35.9998 0.600032 35.9998H35.3999C35.559 35.9998 35.7116 35.9366 35.8241 35.8241C35.9367 35.7116 35.9999 35.559 35.9999 35.3998C35.9999 35.2407 35.9367 35.0881 35.8241 34.9756C35.7116 34.8631 35.559 34.7998 35.3999 34.7998H32.2979C32.3636 34.6065 32.398 34.404 32.3999 34.1998V33.5999C32.4085 33.2909 32.2942 32.9912 32.0823 32.7662C31.8703 32.5413 31.5778 32.4096 31.2689 32.3999H26.7863C27.3486 31.9473 27.8143 31.3866 28.1558 30.7508C28.4974 30.115 28.7078 29.4171 28.7747 28.6985C32.2799 27.8627 35.9999 21.4877 35.9999 18.1559C35.9999 14.4305 33.1523 11.4 29.6519 11.4C29.367 11.4018 29.0825 11.4207 28.7999 11.4563V10.2C28.7999 9.72257 28.6103 9.26473 28.2727 8.92717C27.9351 8.5896 27.4773 8.39996 26.9999 8.39996H9C8.52261 8.39996 8.06477 8.5896 7.72721 8.92717C7.38964 9.26473 7.2 9.72257 7.2 10.2V18.6125C6.88321 18.6213 6.56744 18.6524 6.25501 18.7055C6.15628 18.723 6.06351 18.765 5.98517 18.8276C5.90684 18.8902 5.84545 18.9714 5.8066 19.0638C5.76775 19.1563 5.75268 19.257 5.76278 19.3567C5.77288 19.4565 5.80782 19.5521 5.86441 19.6349C5.95512 19.7729 6.00235 19.9348 6.00001 20.0999C6.00001 20.3386 5.90519 20.5675 5.73641 20.7363C5.56762 20.9051 5.33871 20.9999 5.10001 20.9999C5.03614 20.9991 4.97247 20.9925 4.90981 20.9801C4.82213 20.9669 4.73262 20.9729 4.64748 20.9977C4.56233 21.0224 4.48357 21.0654 4.41662 21.1235C4.34851 21.1828 4.29393 21.256 4.25656 21.3382C4.2192 21.4204 4.19991 21.5096 4.20002 21.5999C4.19901 21.7597 4.16629 21.9178 4.10375 22.0649C4.04121 22.212 3.95009 22.3452 3.83568 22.4568C3.72127 22.5684 3.58584 22.6562 3.43724 22.7151C3.28864 22.774 3.12984 22.8028 2.97002 22.7999C2.88193 22.7999 2.79493 22.8193 2.71518 22.8567C2.63544 22.8942 2.56491 22.9487 2.50862 23.0164C2.45232 23.0842 2.41163 23.1635 2.38944 23.2488C2.36725 23.334 2.3641 23.4231 2.38022 23.5097C2.39264 23.5724 2.39926 23.636 2.40002 23.6999C2.40002 23.9386 2.3052 24.1675 2.13642 24.3363C1.96764 24.5051 1.73872 24.5999 1.50003 24.5999C1.33495 24.6022 1.17297 24.555 1.03503 24.4643C0.952254 24.4077 0.856616 24.3728 0.756855 24.3627C0.657095 24.3526 0.556395 24.3676 0.463957 24.4065C0.371518 24.4453 0.29029 24.5067 0.227695 24.5851C0.165101 24.6634 0.123135 24.7562 0.105635 24.8549C0.0335718 25.2659 -0.00176747 25.6826 3.50999e-05 26.0999C0.00137523 27.459 0.371673 28.7922 1.07142 29.9573C1.77116 31.1224 2.7741 32.0757 3.97322 32.7155C3.85471 32.8302 3.76057 32.9676 3.69645 33.1196C3.63232 33.2716 3.59952 33.4349 3.60002 33.5999V34.1998C3.6019 34.404 3.63634 34.6065 3.70202 34.7998H0.600032C0.440903 34.7998 0.288292 34.8631 0.17577 34.9756C0.0632489 35.0881 3.50999e-05 35.2407 3.50999e-05 35.3998ZM23.3999 32.3999H11.5548C12.8528 31.5668 13.8621 30.3533 14.4445 28.9251C15.027 27.4969 15.1544 25.9237 14.8092 24.4205C14.4641 22.9172 13.6632 21.5571 12.5161 20.5261C11.3689 19.4951 9.93145 18.8433 8.4 18.6599V12.5999H19.2V17.7515L17.5038 19.4477C17.28 19.6704 17.1025 19.9352 16.9817 20.2268C16.8609 20.5185 16.7991 20.8312 16.8 21.1469V25.7999C16.8 26.1181 16.9264 26.4234 17.1514 26.6484C17.3765 26.8735 17.6817 26.9999 18 26.9999H21.5999C21.9182 26.9999 22.2234 26.8735 22.4485 26.6484C22.6735 26.4234 22.7999 26.1181 22.7999 25.7999V21.1469C22.8008 20.8312 22.739 20.5185 22.6182 20.2268C22.4974 19.9352 22.3199 19.6704 22.0961 19.4477L20.3999 17.7515V12.5999H27.5999V28.1999C27.5986 29.3134 27.1557 30.3809 26.3684 31.1683C25.581 31.9557 24.5134 32.3986 23.3999 32.3999ZM19.7999 18.8483L21.2477 20.2961C21.3598 20.4076 21.4487 20.5402 21.5091 20.6862C21.5696 20.8323 21.6004 20.9888 21.5999 21.1469V25.7999H18V21.1469C17.9995 20.9888 18.0303 20.8323 18.0908 20.6862C18.1512 20.5402 18.2401 20.4076 18.3522 20.2961L19.7999 18.8483ZM28.7999 15.1475C29.155 15.0192 29.5349 14.974 29.9102 15.0156C30.2856 15.0573 30.6463 15.1845 30.9647 15.3875C31.4163 15.6922 31.7842 16.1053 32.0349 16.5889C32.2857 17.0725 32.4111 17.6113 32.3999 18.1559C32.3999 20.0237 30.2399 23.4041 28.7999 24.6911V15.1475ZM29.6519 12.5999C32.4905 12.5999 34.7999 15.0923 34.7999 18.1559C34.7999 21.0773 31.4663 26.4809 28.7999 27.4421V26.1509C30.6683 25.0919 33.5999 20.6537 33.5999 18.1559C33.6109 17.4081 33.4338 16.6695 33.085 16.0079C32.7363 15.3463 32.2269 14.7829 31.6037 14.3693C31.1911 14.1085 30.7304 13.933 30.2488 13.8533C29.7672 13.7735 29.2746 13.7911 28.7999 13.9049V12.6707C29.0819 12.6271 29.3666 12.6034 29.6519 12.5999ZM27.5999 10.2V11.4H20.3999V9.59996H26.9999C27.159 9.59996 27.3117 9.66317 27.4242 9.77569C27.5367 9.88821 27.5999 10.0408 27.5999 10.2ZM9 9.59996H19.2V11.4H8.4V10.2C8.4 10.0408 8.46321 9.88821 8.57573 9.77569C8.68825 9.66317 8.84087 9.59996 9 9.59996ZM1.20003 26.0999C1.20003 25.9907 1.20003 25.8845 1.20783 25.7801C1.30466 25.7934 1.40229 25.8 1.50003 25.7999C2.01766 25.7998 2.51702 25.6086 2.90227 25.2628C3.28752 24.9171 3.53152 24.4413 3.58742 23.9267C4.00623 23.8192 4.38837 23.6009 4.6937 23.2947C4.99902 22.9886 5.21627 22.6058 5.32261 22.1867C5.83787 22.1318 6.31462 21.8883 6.66119 21.5031C7.00776 21.1178 7.19967 20.6181 7.2 20.0999C7.2001 20.0022 7.19349 19.9045 7.1802 19.8077C7.2846 19.7999 7.3908 19.7999 7.5 19.7999C8.74602 19.7999 9.96405 20.1694 11.0001 20.8616C12.0361 21.5539 12.8436 22.5378 13.3204 23.689C13.7972 24.8402 13.922 26.1069 13.6789 27.3289C13.4358 28.551 12.8358 29.6736 11.9548 30.5546C11.0737 31.4357 9.95114 32.0357 8.72907 32.2788C7.50699 32.5219 6.24028 32.3971 5.08911 31.9203C3.93794 31.4435 2.95402 30.636 2.26177 29.6C1.56952 28.5639 1.20003 27.3459 1.20003 26.0999ZM4.80001 34.1998L4.80541 33.5999H31.1999V34.1998C31.2139 34.3398 31.174 34.4799 31.0882 34.5914C31.0025 34.7029 30.8774 34.7775 30.7385 34.7998H5.26141C5.12253 34.7775 4.99744 34.7029 4.91169 34.5914C4.82593 34.4799 4.78599 34.3398 4.80001 34.1998Z" fill="white"/>
<path d="M3.6 28.1999C3.93137 28.1999 4.19999 27.9312 4.19999 27.5999C4.19999 27.2685 3.93137 26.9999 3.6 26.9999C3.26863 26.9999 3 27.2685 3 27.5999C3 27.9312 3.26863 28.1999 3.6 28.1999Z" fill="white"/>
<path d="M6.6 24.5999C6.93137 24.5999 7.19999 24.3313 7.19999 23.9999C7.19999 23.6685 6.93137 23.3999 6.6 23.3999C6.26863 23.3999 6 23.6685 6 23.9999C6 24.3313 6.26863 24.5999 6.6 24.5999Z" fill="white"/>
<path d="M7.2 27.5999C7.53137 27.5999 7.8 27.3312 7.8 26.9999C7.8 26.6685 7.53137 26.3999 7.2 26.3999C6.86863 26.3999 6.60001 26.6685 6.60001 26.9999C6.60001 27.3312 6.86863 27.5999 7.2 27.5999Z" fill="white"/>
<path d="M10.2 23.3999C10.5313 23.3999 10.8 23.1313 10.8 22.7999C10.8 22.4685 10.5313 22.1999 10.2 22.1999C9.8686 22.1999 9.59998 22.4685 9.59998 22.7999C9.59998 23.1313 9.8686 23.3999 10.2 23.3999Z" fill="white"/>
<path d="M10.2 29.9999C10.5313 29.9999 10.8 29.7312 10.8 29.3999C10.8 29.0685 10.5313 28.7999 10.2 28.7999C9.8686 28.7999 9.59998 29.0685 9.59998 29.3999C9.59998 29.7312 9.8686 29.9999 10.2 29.9999Z" fill="white"/>
<path d="M6.6 30.5999C6.93137 30.5999 7.19999 30.3312 7.19999 29.9999C7.19999 29.6685 6.93137 29.3999 6.6 29.3999C6.26863 29.3999 6 29.6685 6 29.9999C6 30.3312 6.26863 30.5999 6.6 30.5999Z" fill="white"/>
<path d="M10.8 26.3999C11.1313 26.3999 11.4 26.1312 11.4 25.7999C11.4 25.4685 11.1313 25.1999 10.8 25.1999C10.4686 25.1999 10.2 25.4685 10.2 25.7999C10.2 26.1312 10.4686 26.3999 10.8 26.3999Z" fill="white"/>
<path d="M13.8 7.19997C13.9591 7.19994 14.1117 7.1367 14.2242 7.02417L14.9646 6.28378C15.3587 5.8861 15.5971 5.3603 15.6366 4.80182C15.6762 4.24334 15.5141 3.6892 15.18 3.23999C15.0183 3.02229 14.9401 2.75389 14.9593 2.48344C14.9786 2.21299 15.0941 1.95839 15.285 1.7658L16.0254 1.0254C16.138 0.912737 16.2013 0.759933 16.2013 0.600603C16.2013 0.441272 16.138 0.288468 16.0254 0.175805C15.9127 0.0631411 15.7599 -0.000152575 15.6006 -0.000152577C15.4412 -0.000152579 15.2884 0.0631411 15.1758 0.175805L14.4354 0.916201C14.0413 1.31388 13.8028 1.83968 13.7633 2.39816C13.7238 2.95663 13.8858 3.51077 14.22 3.95999C14.3816 4.17768 14.4599 4.44609 14.4406 4.71654C14.4213 4.98699 14.3058 5.24159 14.115 5.43418L13.3746 6.17458C13.2902 6.2585 13.2327 6.36561 13.2093 6.4823C13.186 6.59899 13.1979 6.71998 13.2435 6.8299C13.2891 6.93981 13.3663 7.03369 13.4654 7.09958C13.5645 7.16548 13.681 7.20043 13.8 7.19997ZM18.5999 7.19997C18.7591 7.19994 18.9117 7.1367 19.0241 7.02417L19.7645 6.28378C20.1586 5.8861 20.3971 5.3603 20.4366 4.80182C20.4761 4.24334 20.3141 3.6892 19.9799 3.23999C19.8183 3.02229 19.74 2.75389 19.7593 2.48344C19.7786 2.21299 19.8941 1.95839 20.0849 1.7658L20.8253 1.0254C20.938 0.912737 21.0013 0.759933 21.0013 0.600603C21.0013 0.441272 20.938 0.288468 20.8253 0.175805C20.7127 0.0631411 20.5599 -0.000152588 20.4005 -0.000152588C20.2412 -0.000152588 20.0884 0.0631411 19.9757 0.175805L19.2353 0.916201C18.8412 1.31388 18.6028 1.83968 18.5633 2.39816C18.5237 2.95663 18.6858 3.51077 19.0199 3.95999C19.1816 4.17768 19.2599 4.44609 19.2406 4.71654C19.2213 4.98699 19.1058 5.24159 18.9149 5.43418L18.1746 6.17458C18.0902 6.2585 18.0327 6.36561 18.0093 6.4823C17.986 6.59899 17.9979 6.71998 18.0435 6.8299C18.0891 6.93981 18.1663 7.03369 18.2654 7.09958C18.3645 7.16548 18.4809 7.20043 18.5999 7.19997ZM23.3999 7.19997C23.559 7.19994 23.7116 7.1367 23.8241 7.02417L24.5645 6.28378C24.9586 5.8861 25.1971 5.3603 25.2366 4.80182C25.2761 4.24334 25.1141 3.6892 24.7799 3.23999C24.6183 3.02229 24.54 2.75389 24.5593 2.48344C24.5785 2.21299 24.6941 1.95839 24.8849 1.7658L25.6253 1.0254C25.738 0.912737 25.8013 0.759933 25.8013 0.600603C25.8013 0.441272 25.738 0.288468 25.6253 0.175805C25.5127 0.0631411 25.3598 -0.000152575 25.2005 -0.000152577C25.0412 -0.000152579 24.8884 0.0631411 24.7757 0.175805L24.0353 0.916201C23.6412 1.31388 23.4028 1.83968 23.3632 2.39816C23.3237 2.95663 23.4858 3.51077 23.8199 3.95999C23.9816 4.17768 24.0598 4.44609 24.0406 4.71654C24.0213 4.98699 23.9058 5.24159 23.7149 5.43418L22.9745 6.17458C22.8902 6.2585 22.8326 6.36561 22.8093 6.4823C22.786 6.59899 22.7978 6.71998 22.8434 6.8299C22.889 6.93981 22.9663 7.03369 23.0654 7.09958C23.1645 7.16548 23.2809 7.20043 23.3999 7.19997Z" fill="white"/>
</g>
<defs>
<clipPath id="clip0_931_27510">
<rect width="36" height="36" fill="white"/>
</clipPath>
</defs>
</svg>
