<svg width="36" height="36" viewBox="0 0 36 36" fill="none" xmlns="http://www.w3.org/2000/svg">
<g clip-path="url(#clip0_931_27517)">
<path d="M32.4 15.6001V14.4C32.4 13.7373 31.8627 13.2 31.1999 13.2H22.7718C23.1682 12.6826 23.3883 12.0517 23.4 11.4C23.398 9.74401 22.056 8.40202 20.4 8.40002H4.79999C4.22693 8.39973 3.66577 8.56359 3.1829 8.8722C2.70003 9.18082 2.31566 9.62128 2.07525 10.1415C1.83484 10.6617 1.74845 11.2399 1.82631 11.8076C1.90417 12.3754 2.14301 12.9089 2.51458 13.3452C2.81061 13.6723 2.98241 14.093 3.00001 14.5338V28.8C3.00249 29.2226 3.11766 29.6368 3.33364 30H1.20003C0.537304 30 0 30.5373 0 31.2001C0.00300301 33.8498 2.15027 35.9971 4.79999 36.0001H31.2C33.8497 35.9971 35.9971 33.8498 36 31.2001C36 30.5373 35.4628 30 34.8 30H30.7644C31.2778 29.5512 31.6893 28.9977 31.9714 28.3768C32.2535 27.756 32.3996 27.082 32.4 26.4V25.2C34.3874 25.198 35.998 23.5874 36 21.6V19.2C35.998 17.2127 34.3874 15.6021 32.4 15.6001ZM31.2 16.2001H18V14.4001H31.2V16.2001ZM6.08699 12.2839C6.05867 12.2259 6.06344 12.1573 6.09959 12.1038C6.11946 12.0715 6.14711 12.0446 6.18001 12.0256C6.21292 12.0067 6.25005 11.9962 6.28801 11.9953H18.906C18.9449 11.9955 18.9832 12.0056 19.0172 12.0246C19.0511 12.0436 19.0798 12.0708 19.1004 12.1038C19.1356 12.1576 19.1402 12.2259 19.1124 12.2839C18.9778 12.5792 18.8694 12.8858 18.7884 13.2001H18C17.3373 13.2001 16.8 13.7373 16.8 14.4001V26.4001C16.8014 26.8052 16.8545 27.2084 16.9578 27.6001H6.59997V14.526C6.59898 13.7497 6.42367 12.9834 6.08699 12.2839ZM4.19998 28.8001V14.5339C4.18659 13.8082 3.91371 13.1113 3.43079 12.5695C3.15157 12.244 2.99867 11.8289 3.00001 11.4001C3.01296 10.4114 3.81129 9.613 4.79999 9.6001H20.4C21.3941 9.6001 22.2 10.406 22.2 11.4001C22.1886 11.8463 22.0199 12.2741 21.7236 12.6079C21.5718 12.7885 21.4434 12.9874 21.3414 13.2001H20.0399C20.0856 13.0629 20.1383 12.9281 20.1977 12.7962C20.2972 12.5855 20.3419 12.353 20.3276 12.1204C20.3134 11.8877 20.2406 11.6625 20.1161 11.4654C19.9883 11.2611 19.8108 11.0924 19.6003 10.975C19.3898 10.8576 19.153 10.7954 18.9119 10.7941H6.2826C6.04224 10.7959 5.80624 10.8585 5.59647 10.9758C5.38669 11.0932 5.20994 11.2616 5.08257 11.4654C4.95802 11.6628 4.88529 11.8884 4.87113 12.1213C4.85697 12.3543 4.90182 12.587 5.00155 12.798C5.26224 13.3369 5.3984 13.9274 5.39995 14.526V27.6C5.39995 28.2628 5.93719 28.8001 6.59997 28.8001H17.4492C17.7112 29.2506 18.0443 29.6558 18.4356 30.0001H5.40001C4.73728 30 4.19998 29.4628 4.19998 28.8001ZM34.8 31.2001C34.798 33.1875 33.1874 34.7981 31.2 34.8001H4.79999C2.81259 34.7981 1.20197 33.1875 1.19997 31.2001H34.8ZM31.2 26.4001C31.198 28.3875 29.5874 29.9981 27.6 30.0001H21.6C19.6126 29.9981 18.002 28.3875 18 26.4001V17.4H31.2V26.4001ZM34.8 21.6001C34.8 22.9256 33.7255 24.0001 32.4 24.0001V16.8001C33.7255 16.8001 34.8 17.8746 34.8 19.2001V21.6001ZM24.6 7.80006C24.6 8.13145 24.8686 8.40007 25.2 8.40007C25.5314 8.40007 25.8 8.13145 25.8 7.80006C25.811 7.03076 25.5643 6.27989 25.0992 5.66704C24.7657 5.25181 24.589 4.73248 24.6 4.20004C24.589 3.66759 24.7657 3.14827 25.0992 2.73304C25.5643 2.12017 25.811 1.36931 25.8 0.600014C25.8 0.268622 25.5314 0 25.2 0C24.8686 0 24.6 0.268622 24.6 0.600014C24.611 1.13246 24.4343 1.6518 24.1008 2.06701C23.6356 2.67988 23.3889 3.43074 23.3999 4.20004C23.3889 4.96934 23.6356 5.72021 24.1008 6.33306C24.4343 6.74827 24.611 7.26761 24.6 7.80006ZM28.4964 6.32164C28.674 6.60162 29.045 6.68465 29.325 6.50706C29.605 6.32947 29.688 5.95845 29.5104 5.67846C29.439 5.56688 29.3646 5.46124 29.2896 5.35508C28.9647 4.9797 28.7903 4.49728 28.8 4.0009C28.79 3.50436 28.9647 3.02179 29.2902 2.64671C29.7582 2.06812 30.0092 1.34421 30 0.600131C30 0.26874 29.7314 0.000117765 29.4 0.000117765C29.0686 0.000117765 28.8 0.26874 28.8 0.600131C28.81 1.09667 28.6353 1.57923 28.3098 1.95431C27.8418 2.5329 27.5908 3.25682 27.6 4.0009C27.5907 4.7447 27.8416 5.46837 28.3092 6.04689C28.3728 6.13686 28.44 6.22625 28.4964 6.32164ZM20.0964 6.32164C20.274 6.60162 20.645 6.68465 20.925 6.50706C21.205 6.32947 21.288 5.95845 21.1104 5.67846C21.039 5.56688 20.9646 5.46124 20.8896 5.35508C20.5647 4.9797 20.3902 4.49728 20.4 4.0009C20.39 3.50436 20.5647 3.02179 20.8902 2.64671C21.3581 2.06812 21.6092 1.34421 21.6 0.600131C21.6 0.26874 21.3313 0.000117765 21 0.000117765C20.6686 0.000117765 20.3999 0.26874 20.3999 0.600131C20.4099 1.09667 20.2353 1.57923 19.9097 1.95431C19.4418 2.5329 19.1907 3.25682 19.2 4.0009C19.1907 4.7447 19.4416 5.46837 19.9092 6.04689C19.9728 6.13686 20.04 6.22625 20.0964 6.32164Z" fill="white"/>
</g>
<defs>
<clipPath id="clip0_931_27517">
<rect width="36" height="36" fill="white"/>
</clipPath>
</defs>
</svg>
