<svg width="36" height="36" viewBox="0 0 36 36" fill="none" xmlns="http://www.w3.org/2000/svg">
<g clip-path="url(#clip0_835_29740)">
<path d="M28.8 18.6C29.156 18.6 29.504 18.4944 29.8 18.2966C30.096 18.0989 30.3267 17.8177 30.463 17.4888C30.5992 17.1599 30.6349 16.798 30.5654 16.4488C30.496 16.0997 30.3245 15.7789 30.0728 15.5272C29.8211 15.2755 29.5003 15.104 29.1512 15.0346C28.802 14.9651 28.4401 15.0008 28.1112 15.137C27.7823 15.2733 27.5011 15.504 27.3034 15.8C27.1056 16.096 27 16.444 27 16.8C27 17.2774 27.1896 17.7352 27.5272 18.0728C27.8648 18.4104 28.3226 18.6 28.8 18.6ZM28.8 16.2C28.9187 16.2 29.0347 16.2352 29.1333 16.3011C29.232 16.367 29.3089 16.4608 29.3543 16.5704C29.3997 16.68 29.4116 16.8007 29.3885 16.9171C29.3653 17.0334 29.3082 17.1404 29.2243 17.2243C29.1404 17.3082 29.0334 17.3653 28.9171 17.3885C28.8007 17.4116 28.68 17.3997 28.5704 17.3543C28.4608 17.3089 28.367 17.232 28.3011 17.1333C28.2352 17.0347 28.2 16.9187 28.2 16.8C28.2 16.6409 28.2632 16.4883 28.3757 16.3757C28.4883 16.2632 28.6409 16.2 28.8 16.2ZM25.6692 21.6C25.7878 21.6 25.9038 21.5648 26.0025 21.4988C26.1011 21.4329 26.178 21.3392 26.2234 21.2296C26.2688 21.12 26.2807 20.9994 26.2575 20.883C26.2344 20.7666 26.1773 20.6597 26.0934 20.5758C25.1384 19.6186 24.6021 18.3216 24.6021 16.9695C24.6021 15.6174 25.1384 14.3204 26.0934 13.3632C26.2027 13.25 26.2632 13.0985 26.2618 12.9412C26.2604 12.7838 26.1973 12.6334 26.0861 12.5221C25.9748 12.4109 25.8244 12.3478 25.667 12.3464C25.5097 12.345 25.3582 12.4055 25.245 12.5148C24.0636 13.6963 23.3998 15.2987 23.3998 16.9695C23.3998 18.6403 24.0636 20.2427 25.245 21.4242C25.3575 21.5367 25.5101 21.6 25.6692 21.6Z" fill="#16B364"/>
<path d="M18.4494 31.4718C18.7119 31.6864 19.041 31.8025 19.38 31.8C19.4695 31.8001 19.5589 31.792 19.647 31.776C20.5896 31.5881 21.4519 31.1154 22.1171 30.4216C22.7824 29.7279 23.2187 28.8467 23.367 27.897C29.133 26.6034 33.7416 21.4872 35.6154 19.1106C35.8666 18.7952 36.0033 18.4038 36.0033 18.0006C36.0033 17.5974 35.8666 17.2061 35.6154 16.8906C33.8658 14.6742 29.742 10.08 24.5196 8.41561C24.249 6.89041 23.1396 2.72821 18.9942 1.83961C18.7289 1.78372 18.4544 1.78784 18.1909 1.85167C17.9274 1.9155 17.6815 2.03742 17.4712 2.20853C17.2608 2.37963 17.0914 2.59559 16.9753 2.8406C16.8592 3.08561 16.7993 3.35347 16.8 3.62461V8.45401C12.0942 10.0044 8.28 13.9284 6.4848 16.0434C5.60351 14.5459 4.17403 13.4502 2.499 12.9882C2.18163 12.8902 1.84458 12.8741 1.51932 12.9416C1.19407 13.009 0.891205 13.1578 0.639005 13.374C0.411274 13.5627 0.235049 13.806 0.126772 14.0812C0.018495 14.3564 -0.0183054 14.6545 0.0198045 14.9478L0.439804 17.934C0.446403 17.9782 0.446403 18.0231 0.439804 18.0672L0.0138045 21.123C-0.0240896 21.4157 0.0127052 21.7132 0.120762 21.9879C0.228819 22.2626 0.404624 22.5054 0.631804 22.6938C0.987695 22.9989 1.44107 23.1664 1.9098 23.166C2.10722 23.1658 2.30353 23.1365 2.4924 23.079C4.18398 22.6146 5.62483 21.5031 6.5034 19.9848C8.6586 22.5318 12.8634 26.7192 17.9976 27.8868V30.5316C17.9993 30.7119 18.0406 30.8896 18.1187 31.0521C18.1968 31.2146 18.3097 31.3579 18.4494 31.4718ZM19.4286 30.5952C19.3886 30.6058 19.3465 30.6058 19.3064 30.5953C19.2663 30.5848 19.2297 30.5641 19.2 30.5352V28.0998C20.1534 28.2273 21.1191 28.2332 22.074 28.1172C21.9156 28.7397 21.5823 29.3038 21.1135 29.7429C20.6447 30.182 20.0601 30.4777 19.4286 30.5952ZM18 3.62461C17.9993 3.53229 18.0192 3.44098 18.0583 3.35736C18.0974 3.27374 18.1547 3.19992 18.2261 3.14131C18.2974 3.08269 18.3809 3.04077 18.4705 3.01861C18.5601 2.99644 18.6536 2.9946 18.744 3.01321C21.7632 3.66061 22.8486 6.50581 23.223 8.07181C22.3939 7.89295 21.5482 7.80185 20.7 7.80001C19.7908 7.80294 18.8849 7.90983 18 8.11861V3.62461ZM2.1468 21.9312C2.02176 21.9699 1.88896 21.9763 1.76076 21.9499C1.63256 21.9235 1.51314 21.865 1.4136 21.78C1.34035 21.7217 1.28287 21.6459 1.2464 21.5597C1.20993 21.4734 1.19563 21.3794 1.2048 21.2862L1.6308 18.2316C1.65241 18.0764 1.65241 17.9189 1.6308 17.7636L1.2108 14.7774C1.20143 14.6843 1.21552 14.5904 1.25178 14.5041C1.28805 14.4178 1.34533 14.342 1.4184 14.2836C1.51836 14.1991 1.63797 14.1412 1.7662 14.1151C1.89444 14.089 2.02718 14.0956 2.1522 14.1342C4.3074 14.7888 5.8122 16.3914 5.8122 18.0342C5.8122 19.677 4.3038 21.2766 2.1468 21.9312ZM6.9558 18.6462C6.99013 18.4438 7.00838 18.2389 7.0104 18.0336C7.00874 17.8098 6.98746 17.5865 6.9468 17.3664C8.44681 15.5064 12.5592 10.9134 17.619 9.45361C17.625 9.45361 17.6316 9.45061 17.6382 9.44821C18.6328 9.15636 19.6635 9.00549 20.7 9.00001C27.3444 9.00001 33.0738 15.6084 34.6716 17.634C34.7542 17.7382 34.7991 17.8673 34.7991 18.0003C34.7991 18.1333 34.7542 18.2624 34.6716 18.3666C33.0738 20.3916 27.3444 27 20.7 27C14.2986 27 8.7492 20.8626 6.9558 18.6462Z" fill="#16B364"/>
<path d="M20.175 24.003C19.9746 23.9826 15.255 23.463 14.4228 19.323C14.4037 19.2288 14.4057 19.1315 14.4288 19.0381C14.4518 18.9447 14.4952 18.8576 14.556 18.783C14.6074 18.719 14.6726 18.6673 14.7466 18.6317C14.8206 18.5961 14.9016 18.5775 14.9838 18.5772H14.9868L19.878 18.6C20.0371 18.6 20.1897 18.5368 20.3023 18.4243C20.4148 18.3118 20.478 18.1592 20.478 18C20.478 17.8409 20.4148 17.6883 20.3023 17.5758C20.1897 17.4633 20.0371 17.4 19.878 17.4L14.9862 17.3796H14.9796C14.7204 17.3797 14.4644 17.4374 14.2302 17.5485C13.996 17.6597 13.7894 17.8215 13.6254 18.0222C13.4508 18.2344 13.3257 18.4829 13.2593 18.7496C13.1928 19.0162 13.1867 19.2943 13.2414 19.5636C14.2578 24.5754 19.9998 25.1916 20.058 25.2C20.0779 25.2023 20.0979 25.2033 20.118 25.203C20.2719 25.2031 20.42 25.1439 20.5315 25.0378C20.6431 24.9317 20.7096 24.7868 20.7173 24.6331C20.725 24.4793 20.6733 24.3285 20.573 24.2118C20.4726 24.0951 20.3312 24.0214 20.178 24.006L20.175 24.003Z" fill="#16B364"/>
</g>
<defs>
<clipPath id="clip0_835_29740">
<rect width="36" height="36" fill="white"/>
</clipPath>
</defs>
</svg>
