<svg width="36" height="36" viewBox="0 0 36 36" fill="none" xmlns="http://www.w3.org/2000/svg">
<path d="M34.5116 16.0921C34.2448 16.0606 28.3819 15.3986 23.2149 16.9923C23.5593 15.9795 23.7987 14.9339 23.9306 13.872C24.5774 8.68986 21.226 3.89763 17.8377 1.63842C17.7136 1.55559 17.5624 1.52347 17.4153 1.54866C17.2681 1.57385 17.1363 1.65443 17.0467 1.77385C15.625 3.65472 14.1755 5.51445 12.6987 7.35243C10.5732 9.98818 7.12251 14.2743 9.47338 19.9112C6.53799 19.0435 3.42962 18.9398 0.442933 19.61C0.358016 19.6311 0.278931 19.671 0.211527 19.7268C0.144123 19.7826 0.0901241 19.8529 0.0535234 19.9323C0.0169228 20.0118 -0.00134301 20.0985 7.68728e-05 20.186C0.00149675 20.2735 0.022566 20.3595 0.0617264 20.4378C1.16405 22.6867 2.12848 25.0006 2.94967 27.3666C3.70858 29.6492 6.04369 34.2406 12.4997 34.2406C13.9989 34.2215 15.4897 34.0124 16.9364 33.6183C17.8634 33.8577 18.8173 33.9797 19.7747 33.9802C25.306 33.9802 30.4193 30.0427 32.0731 25.6322C33.8122 20.9935 34.992 16.8721 35.0066 16.8312C35.0297 16.7498 35.0348 16.6644 35.0215 16.5808C35.0083 16.4972 34.977 16.4175 34.93 16.3472C34.8829 16.2769 34.8211 16.2177 34.7488 16.1737C34.6766 16.1296 34.5956 16.1018 34.5116 16.0921ZM13.6083 8.08507C14.9708 6.39211 16.4373 4.50885 17.6392 2.92623C20.578 5.09905 23.3305 9.26371 22.7724 13.7261C22.6135 15.0292 22.275 16.304 21.7665 17.5142C20.7448 17.9212 19.7826 18.4642 18.906 19.1284C16.7548 20.805 15.7776 22.3923 15.2773 23.871C15.1605 23.6958 15.0379 23.5265 14.9095 23.3608C14.5131 20.617 14.0846 13.9386 17.9936 8.29406C18.0774 8.1667 18.108 8.01163 18.079 7.86197C18.0499 7.71232 17.9635 7.57997 17.8382 7.4932C17.7128 7.40643 17.5585 7.37214 17.4082 7.39765C17.2579 7.42316 17.1236 7.50645 17.0339 7.62972C13.4991 12.7331 13.307 18.5966 13.5843 22.0023C12.8082 21.3774 11.95 20.8618 11.0338 20.4699C8.06647 14.9637 11.3946 10.83 13.6083 8.08507ZM4.05651 26.9971C3.30218 24.8135 2.42512 22.6743 1.42952 20.5896C5.76289 19.7857 12.5271 20.8546 14.6532 25.108C15.1226 26.1118 15.4716 27.1676 15.6929 28.2534C13.9527 25.8115 10.948 23.3041 4.79324 21.9854C4.71826 21.9693 4.64085 21.9681 4.56542 21.9819C4.48999 21.9957 4.41802 22.0243 4.35362 22.0659C4.28922 22.1075 4.23365 22.1615 4.19008 22.2246C4.14652 22.2877 4.11581 22.3587 4.09971 22.4337C4.08361 22.5087 4.08244 22.5861 4.09626 22.6615C4.11007 22.737 4.13861 22.8089 4.18025 22.8733C4.22188 22.9377 4.27579 22.9933 4.3389 23.0369C4.402 23.0804 4.47308 23.1111 4.54805 23.1272C12.7507 24.885 14.8955 28.9101 15.8097 30.6772C15.8471 30.7712 16.0344 31.0917 16.2283 31.5961C16.2697 31.9913 16.2977 32.3258 16.3164 32.5733C7.64207 34.679 4.85687 29.3988 4.05651 26.9971ZM30.9774 25.2236C29.4455 29.31 23.6218 33.9586 17.4863 32.5512C17.4127 31.5281 17.2925 30.5089 17.1261 29.4968C17.6025 27.6825 19.1401 22.6083 31.0819 19.6199C31.1578 19.6028 31.2295 19.5708 31.2928 19.5256C31.3562 19.4804 31.4098 19.423 31.4506 19.3567C31.4915 19.2905 31.5187 19.2168 31.5306 19.1399C31.5425 19.063 31.539 18.9846 31.5201 18.9091C31.5013 18.8336 31.4676 18.7626 31.4209 18.7004C31.3743 18.6381 31.3156 18.5858 31.2485 18.5465C31.1813 18.5072 31.107 18.4817 31.0299 18.4716C30.9527 18.4614 30.8744 18.4668 30.7993 18.4874C23.2931 20.3636 18.6521 23.2802 16.6848 27.3649C16.5275 26.7332 16.3326 26.1116 16.101 25.5032C16.3479 23.2609 17.8523 21.4308 19.627 20.0507C23.1227 17.3228 29.2757 16.8703 33.6844 17.1902C33.2757 18.5405 32.2874 21.732 30.9774 25.2236Z" fill="#16B364"/>
</svg>
