<svg width="36" height="36" viewBox="0 0 36 36" fill="none" xmlns="http://www.w3.org/2000/svg">
<path d="M13.8402 13.74C12.2627 13.6575 10.7031 13.3662 9.2022 12.8736C9.05238 12.8198 8.88733 12.8278 8.74336 12.8957C8.59939 12.9636 8.48829 13.0859 8.4345 13.2357C8.38071 13.3855 8.38865 13.5506 8.45655 13.6946C8.52446 13.8385 8.64678 13.9496 8.7966 14.0034C10.4014 14.5373 12.0708 14.8523 13.7598 14.94H13.8006C13.9597 14.9453 14.1144 14.8871 14.2307 14.7783C14.3469 14.6695 14.4151 14.5189 14.4204 14.3598C14.4257 14.2007 14.3675 14.046 14.2587 13.9298C14.1499 13.8135 13.9993 13.7453 13.8402 13.74ZM19.8 14.6538C19.8352 14.6539 19.8704 14.6507 19.905 14.6442C20.7543 14.5017 21.5901 14.2878 22.4034 14.0046C22.5532 13.9508 22.6755 13.8397 22.7434 13.6958C22.8114 13.5518 22.8193 13.3867 22.7655 13.2369C22.7117 13.0871 22.6006 12.9648 22.4566 12.8969C22.3127 12.829 22.1476 12.821 21.9978 12.8748C21.2486 13.1355 20.4786 13.3322 19.6962 13.4628C19.5483 13.4887 19.4155 13.5692 19.324 13.6882C19.2325 13.8073 19.189 13.9563 19.202 14.1059C19.215 14.2555 19.2837 14.3948 19.3944 14.4962C19.5051 14.5976 19.6498 14.6539 19.8 14.6538ZM12.1152 32.0712C11.3902 31.9351 10.6784 31.7357 9.9882 31.4754C9.87389 31.4323 9.77547 31.3553 9.7061 31.2547C9.63673 31.1541 9.59971 31.0348 9.6 30.9126V27C9.6 26.8409 9.53679 26.6883 9.42426 26.5758C9.31174 26.4632 9.15913 26.4 9 26.4C8.84087 26.4 8.68826 26.4632 8.57574 26.5758C8.46321 26.6883 8.4 26.8409 8.4 27V30.9126C8.39912 31.2766 8.50895 31.6322 8.71492 31.9322C8.9209 32.2323 9.21326 32.4626 9.5532 32.5926C10.3092 32.8782 11.0892 33.0978 11.8836 33.2484C12.0398 33.2791 12.2018 33.2465 12.3339 33.1578C12.4661 33.0691 12.5576 32.9315 12.5883 32.7753C12.619 32.6191 12.5864 32.4571 12.4977 32.325C12.409 32.1928 12.2714 32.1019 12.1152 32.0712Z" fill="#16B364"/>
<path d="M8.99999 25.2C9.33136 25.2 9.59999 24.9314 9.59999 24.6C9.59999 24.2686 9.33136 24 8.99999 24C8.66862 24 8.39999 24.2686 8.39999 24.6C8.39999 24.9314 8.66862 25.2 8.99999 25.2Z" fill="#16B364"/>
<path d="M8.2998 8.2518L7.0518 9.4998C6.37995 10.1755 6.00197 11.0891 6 12.042V32.4C6 34.4604 11.0682 36 15.6 36C20.1318 36 25.2 34.4604 25.2 32.4V18.1968C25.3848 18.1314 25.5582 18.0366 25.7124 17.916L28.7658 15.516C29.0349 15.3079 29.2383 15.0266 29.3516 14.7059C29.4649 14.3852 29.4834 14.0386 29.4048 13.7076L30.0132 13.2276C30.1988 13.0825 30.3481 12.8962 30.4493 12.6834C30.5504 12.4706 30.6006 12.2372 30.5959 12.0016C30.5912 11.7661 30.5317 11.5349 30.4221 11.3263C30.3125 11.1177 30.1559 10.9375 29.9646 10.8L22.56 5.4972C22.713 5.2968 22.7976 5.052 22.8 4.8V2.4C22.8 0.5058 18.2742 0 15.6 0C12.9258 0 8.4 0.5058 8.4 2.4V4.8C8.41038 5.0107 8.47008 5.21601 8.57429 5.39943C8.6785 5.58284 8.82432 5.73923 9 5.856V6.558C8.99837 7.1927 8.74681 7.80122 8.2998 8.2518ZM15.6 34.8C10.548 34.8 7.2 33.0918 7.2 32.4V12.042C7.20111 11.4072 7.45275 10.7985 7.9002 10.3482L9.1482 9.1002C9.2394 9.0084 9.3252 8.9118 9.4056 8.8104L10.3308 9.5748C10.2264 9.7056 10.1148 9.8304 9.9966 9.9486L9.5694 10.3758C9.51209 10.4311 9.46638 10.4974 9.43494 10.5706C9.40349 10.6438 9.38694 10.7225 9.38625 10.8022C9.38556 10.8818 9.40074 10.9608 9.43091 11.0346C9.46108 11.1083 9.50563 11.1753 9.56196 11.2316C9.6183 11.288 9.68529 11.3325 9.75903 11.3627C9.83277 11.3929 9.91177 11.408 9.99144 11.4074C10.0711 11.4067 10.1498 11.3901 10.223 11.3587C10.2962 11.3272 10.3625 11.2815 10.4178 11.2242L10.845 10.8C10.9902 10.6542 11.127 10.5012 11.2554 10.341L21.2448 18.5862C21.5169 18.8125 21.8599 18.9359 22.2138 18.9348C22.554 18.9348 22.884 18.8226 23.1534 18.615L23.7948 18.1098C23.8614 18.1398 23.9298 18.1656 24 18.1872V32.4C24 33.0918 20.652 34.8 15.6 34.8ZM28.0248 14.5728L24.9702 16.9728C24.8659 17.0554 24.7367 17.1005 24.6036 17.1006H24.6C24.4757 17.0998 24.3546 17.0604 24.2537 16.9878C24.1527 16.9152 24.0768 16.8131 24.0364 16.6955C23.996 16.5779 23.9932 16.4507 24.0282 16.3314C24.0633 16.2121 24.1346 16.1066 24.2322 16.0296L27.2868 13.6296C27.3486 13.5793 27.4197 13.5419 27.4961 13.5194C27.5725 13.4969 27.6526 13.4899 27.7318 13.4987C27.8109 13.5075 27.8875 13.5319 27.9571 13.5706C28.0267 13.6094 28.0879 13.6615 28.1372 13.7241C28.1864 13.7867 28.2227 13.8585 28.2438 13.9353C28.265 14.0121 28.2708 14.0923 28.2606 14.1713C28.2505 14.2503 28.2248 14.3264 28.1849 14.3954C28.145 14.4643 28.0918 14.5246 28.0284 14.5728H28.0248ZM29.4 12.0288C29.4012 12.0783 29.3904 12.1274 29.3686 12.1719C29.3467 12.2164 29.3145 12.255 29.2746 12.2844L28.761 12.6882C28.4454 12.4373 28.0542 12.3008 27.651 12.3008C27.2479 12.3008 26.8566 12.4373 26.541 12.6882L25.2 13.74V12.042C25.1977 11.0892 24.8198 10.1757 24.1482 9.4998L22.9002 8.2518C22.4979 7.84238 22.2556 7.30233 22.2174 6.7296L29.2638 11.7696C29.349 11.8284 29.3994 11.9256 29.4 12.0288ZM9.7896 4.9884C9.7109 4.94341 9.64549 4.87842 9.6 4.8V3.8262C11.1282 4.566 13.7874 4.8 15.6 4.8C17.4126 4.8 20.0742 4.566 21.6 3.8256V4.7748C21.5466 4.86763 21.4685 4.94385 21.3744 4.995C19.98 5.55 18.7674 6 15.6 6C11.3292 6 9.8532 5.01 9.7896 4.9884ZM15.6 1.2C19.1562 1.2 21.3498 1.9668 21.5916 2.4C21.3516 2.8332 19.1562 3.6 15.6 3.6C11.988 3.6 9.783 2.8092 9.6 2.43V2.4198C9.783 1.9908 11.988 1.2 15.6 1.2ZM15.6 7.2C17.4264 7.2291 19.2467 6.98335 21 6.471V6.558C21.002 7.51088 21.38 8.42447 22.0518 9.1002L23.2998 10.3482C23.7468 10.7988 23.9984 11.4073 24 12.042V14.682L23.4882 15.084C23.171 15.331 22.9465 15.6779 22.8514 16.0685C22.7562 16.4591 22.7958 16.8704 22.9638 17.2356L22.4154 17.667C22.3577 17.7123 22.2861 17.7365 22.2127 17.7354C22.1393 17.7343 22.0686 17.708 22.0122 17.661L11.9136 9.321C12.0371 9.08836 12.1451 8.84784 12.237 8.601C12.2879 8.45235 12.2784 8.28967 12.2106 8.14792C12.1429 8.00618 12.0222 7.89667 11.8746 7.84292C11.7269 7.78918 11.5641 7.79549 11.4211 7.8605C11.278 7.92551 11.1662 8.04403 11.1096 8.1906C11.0664 8.3106 11.0142 8.4216 10.9626 8.5356L9.9942 7.74C10.1286 7.3602 10.1982 6.9606 10.2 6.558V6.471C11.9533 6.98335 13.7736 7.2291 15.6 7.2Z" fill="#16B364"/>
<path d="M8.99999 22.8C9.15912 22.8 9.31174 22.7368 9.42426 22.6242C9.53678 22.5117 9.59999 22.3591 9.59999 22.2V16.2C9.59999 16.0408 9.53678 15.8882 9.42426 15.7757C9.31174 15.6632 9.15912 15.6 8.99999 15.6C8.84086 15.6 8.68825 15.6632 8.57573 15.7757C8.46321 15.8882 8.39999 16.0408 8.39999 16.2V22.2C8.39999 22.3591 8.46321 22.5117 8.57573 22.6242C8.68825 22.7368 8.84086 22.8 8.99999 22.8Z" fill="#16B364"/>
</svg>
