<svg width="36" height="36" viewBox="0 0 36 36" fill="none" xmlns="http://www.w3.org/2000/svg">
<g clip-path="url(#clip0_931_27514)">
<path d="M18 36C28.0932 36 36 32.1188 36 27.1646C36 24.502 33.7314 22.0754 29.7444 20.4222C29.8752 20.0999 29.9442 19.7472 29.946 19.3895C29.9304 18.7319 29.7117 18.1036 29.331 17.6224C29.7243 17.1526 29.9452 16.5195 29.9461 15.8597C29.947 15.1998 29.7278 14.566 29.3358 14.0946C29.7178 13.6123 29.9351 12.9807 29.946 12.3212C29.946 10.4976 28.2132 8.97294 25.062 8.00034C24.9507 7.14604 24.6223 6.35153 24.12 5.72152C23.5718 5.12047 22.8811 4.73042 22.14 4.60331C23.3292 3.36283 23.8896 3.18965 23.949 3.17764C24.1081 3.1708 24.2584 3.08976 24.3668 2.95237C24.4753 2.81498 24.5329 2.63247 24.5271 2.44501C24.5213 2.25755 24.4525 2.08048 24.3359 1.95276C24.2193 1.82504 24.0643 1.75714 23.9052 1.76398C23.6754 1.76398 22.8762 1.92372 21.2598 3.63496C21.1597 2.73287 20.8242 1.88968 20.2998 1.22184C19.5375 0.427384 18.5528 -0.00711633 17.535 0.0018511C17.3701 -0.00826018 17.2054 0.0231369 17.0516 0.0939499C16.8979 0.164763 16.7587 0.273365 16.6434 0.412519C16.527 0.550064 16.436 0.714377 16.3759 0.895211C16.3158 1.07604 16.288 1.26952 16.2942 1.46358C16.3113 2.25131 16.4657 3.02648 16.7478 3.74098C16.0878 3.97424 15.4878 4.39621 15 4.97016C14.4338 5.68328 13.9628 6.4936 13.6032 7.37338C9.894 7.9961 6.054 9.6006 6.054 12.3212C6.0648 12.9807 6.282 13.6126 6.6642 14.0946C6.2722 14.566 6.05305 15.1998 6.05395 15.8597C6.05484 16.5195 6.27572 17.1526 6.669 17.6224C6.28825 18.1036 6.06958 18.7319 6.054 19.3895C6.0558 19.7472 6.1248 20.0999 6.2556 20.4222C2.2686 22.0754 0 24.502 0 27.1646C0 32.1188 7.9068 36 18 36ZM28.746 26.4578C28.746 28.2956 24.1506 30.3454 18 30.3454C11.8494 30.3454 7.254 28.2956 7.254 26.4578C7.27393 26.138 7.39035 25.8371 7.5822 25.6096C8.33819 26.1831 9.1588 26.6288 10.02 26.9335C10.0782 26.9547 10.1388 26.9667 10.2 26.9674C10.343 26.9669 10.4812 26.9062 10.5896 26.7963C10.698 26.6864 10.7696 26.5345 10.7913 26.3679C10.813 26.2014 10.7835 26.0311 10.7081 25.888C10.6327 25.7448 10.5163 25.638 10.38 25.587C9.48534 25.2894 8.6449 24.8001 7.9008 24.1436C7.72697 24.0044 7.57967 23.824 7.46831 23.6139C7.35695 23.4039 7.28396 23.1688 7.254 22.9236C7.27444 22.6055 7.39036 22.3063 7.581 22.0797C9.6246 23.6778 13.6104 24.6907 18 24.6907C19.038 24.6907 20.0664 24.6349 21.0564 24.5253C21.2149 24.5077 21.361 24.4166 21.4625 24.2721C21.5639 24.1277 21.6126 23.9416 21.5976 23.7549C21.5826 23.5682 21.5053 23.3961 21.3827 23.2765C21.26 23.157 21.1021 23.0997 20.9436 23.1173C19.9908 23.2233 19.0008 23.2771 18 23.2771C13.6038 23.2771 9.5466 22.2055 7.9038 20.6095C7.81813 20.5263 7.73659 20.4373 7.6596 20.343L7.6548 20.3359C7.4245 20.0914 7.28131 19.7533 7.254 19.3895C7.2738 19.0714 7.3896 18.7724 7.5804 18.5462C8.71462 19.3636 9.95761 19.95 11.2572 20.2808C11.41 20.3196 11.5696 20.2867 11.702 20.189C11.8345 20.0913 11.9294 19.9366 11.9665 19.7578C12.0037 19.579 11.9801 19.3901 11.9008 19.2314C11.8216 19.0728 11.6929 18.9568 11.5422 18.9081C10.2328 18.6073 8.9925 17.9826 7.9032 17.0753C7.72892 16.9363 7.58117 16.7561 7.46939 16.546C7.3576 16.3359 7.28425 16.1007 7.254 15.8553C7.2738 15.538 7.389 15.2397 7.5792 15.0135C9.7644 16.7212 13.9692 17.6224 18 17.6224C22.0308 17.6224 26.2356 16.7212 28.4208 15.0135C28.611 15.2397 28.7262 15.538 28.746 15.8553C28.7155 16.1013 28.6417 16.3371 28.5294 16.5475C28.4171 16.758 28.2687 16.9385 28.0938 17.0775C26.4534 18.6714 22.3962 19.7429 18 19.7429C16.9992 19.7429 16.0092 19.6892 15.0564 19.5832C14.9779 19.5744 14.8988 19.584 14.8234 19.6113C14.7481 19.6386 14.678 19.6832 14.6173 19.7424C14.5566 19.8016 14.5063 19.8743 14.4695 19.9564C14.4326 20.0384 14.4098 20.1283 14.4024 20.2207C14.395 20.3132 14.4031 20.4064 14.4263 20.4952C14.4495 20.5839 14.4873 20.6664 14.5376 20.738C14.5878 20.8095 14.6495 20.8687 14.7192 20.9122C14.7889 20.9556 14.8651 20.9824 14.9436 20.9912C15.9336 21.1007 16.962 21.1566 18 21.1566C22.3908 21.1566 26.3778 20.143 28.419 18.5455C28.6098 18.7717 28.725 19.0714 28.746 19.3895C28.7189 19.753 28.5759 20.091 28.3458 20.3352L28.3398 20.3437C28.2624 20.4384 28.1802 20.5275 28.0944 20.6109C26.8296 21.6297 25.3888 22.3056 23.8758 22.59C23.7201 22.6288 23.5838 22.7389 23.497 22.8961C23.4102 23.0532 23.38 23.2445 23.4129 23.428C23.4458 23.6114 23.5393 23.7719 23.6727 23.8742C23.8061 23.9764 23.9685 24.0121 24.1242 23.9733C25.6425 23.6562 27.0985 23.0139 28.4202 22.0783C28.6107 22.3055 28.7262 22.6052 28.746 22.9236C28.7155 23.1696 28.6417 23.4054 28.5294 23.6158C28.4171 23.8263 28.2687 24.0068 28.0938 24.1458C26.4534 25.7397 22.3962 26.8112 18 26.8112C16.2189 26.82 14.4408 26.6362 12.6882 26.262C12.6106 26.2438 12.5307 26.2441 12.4532 26.2628C12.3756 26.2816 12.3021 26.3184 12.2368 26.371C12.1715 26.4237 12.1158 26.4912 12.073 26.5696C12.0302 26.648 12.0011 26.7356 11.9874 26.8275C11.9727 26.9189 11.9735 27.0128 11.9897 27.1038C12.0059 27.1949 12.0372 27.2812 12.0818 27.358C12.1264 27.4348 12.1834 27.5004 12.2496 27.5511C12.3157 27.6019 12.3898 27.6368 12.4674 27.6538C14.2926 28.0425 16.1454 28.2341 18 28.2249C22.3908 28.2249 26.3778 27.2113 28.419 25.6138C28.6098 25.84 28.725 26.1397 28.746 26.4578ZM23.9574 9.02736C23.2447 9.03707 22.5516 8.75192 21.999 8.22158C21.5452 7.5734 21.3023 6.75597 21.3138 5.9159C22.0272 5.90181 22.7216 6.18775 23.2722 6.72239C23.7222 7.37277 23.9647 8.18832 23.9574 9.02736ZM19.4538 2.22271C19.9072 2.8708 20.1499 3.68794 20.1384 4.52768C19.4343 4.53811 18.7491 4.26002 18.1998 3.74098C18.1896 3.72779 18.1788 3.71528 18.1674 3.70352C17.7283 3.05317 17.4894 2.24653 17.49 1.41551C18.2046 1.40549 18.8996 1.69114 19.4538 2.22271ZM15.8472 5.96891C16.3189 5.41757 16.9343 5.06905 17.5944 4.97935C18.3315 5.59466 19.211 5.92894 20.1144 5.9371C20.1187 7.00575 20.4021 8.04694 20.9262 8.91922C20.848 9.69268 20.5523 10.413 20.0862 10.9655C19.172 11.9089 18.0984 12.613 16.9362 13.0316C15.6342 13.515 14.5932 13.4896 14.1468 12.9651C13.1196 11.7557 14.5128 7.54443 15.8472 5.97103V5.96891ZM13.0512 8.90084C12.4854 10.8227 12.3606 12.8591 13.302 13.966C13.5713 14.2541 13.8868 14.4759 14.2299 14.6183C14.573 14.7606 14.9369 14.8208 15.3 14.7951C15.9817 14.7786 16.6574 14.6406 17.304 14.3858C18.6519 13.9038 19.8933 13.0783 20.94 11.9678C21.4279 11.393 21.7867 10.6842 21.984 9.90525C22.59 10.2375 23.2488 10.4198 23.9172 10.4396H23.964C24.48 10.4431 24.9378 10.0509 25.0938 9.47196C27.7716 10.3654 28.7478 11.5401 28.7478 12.3191C28.7478 14.1568 24.1524 16.2066 18.0018 16.2066C11.8512 16.2066 7.2558 14.1568 7.2558 12.3191C7.254 11.1804 9.2808 9.66705 13.0512 8.90296V8.90084ZM6.24 21.9341C6.1194 22.2451 6.0558 22.5822 6.0528 22.9236C6.069 23.581 6.288 24.2101 6.669 24.6907C6.288 25.1714 6.069 25.8004 6.054 26.4578C6.054 29.9015 12.2088 31.759 18 31.759C23.7912 31.759 29.946 29.9015 29.946 26.4578C29.9304 25.8002 29.7117 25.1719 29.331 24.6907C29.712 24.2101 29.9304 23.581 29.946 22.9236C29.9433 22.582 29.8795 22.2448 29.7588 21.9341C32.9388 23.3386 34.7988 25.247 34.7988 27.1646C34.8 30.749 28.0494 34.5863 18 34.5863C7.9506 34.5863 1.2 30.749 1.2 27.1646C1.2 25.247 3.0642 23.3386 6.24 21.9341Z" fill="white"/>
<path d="M31.47 28.2418C31.3371 28.3449 31.2443 28.5061 31.2122 28.6897C31.1801 28.8734 31.2112 29.0645 31.2987 29.2212C31.3862 29.3778 31.523 29.487 31.6789 29.5249C31.8348 29.5627 31.9971 29.5261 32.13 29.423L32.1804 29.3827C32.4766 29.1342 32.7175 28.8053 32.883 28.4239C33.0484 28.0425 33.1334 27.6198 33.1308 27.1915C33.1333 26.7534 33.0469 26.321 32.8789 25.9301C32.7108 25.5393 32.466 25.2014 32.1648 24.9445L32.1438 24.9275C32.0801 24.8753 32.0082 24.8386 31.9323 24.8194C31.8564 24.8002 31.778 24.7989 31.7017 24.8157C31.6254 24.8325 31.5527 24.8669 31.4878 24.9171C31.4229 24.9672 31.3671 25.032 31.3236 25.1078C31.1376 25.4329 31.2048 25.8733 31.4748 26.1016C31.7658 26.356 31.9356 26.7589 31.9308 27.1858C31.9327 27.3927 31.8917 27.597 31.8114 27.7811C31.7311 27.9651 31.6139 28.1232 31.47 28.2418ZM3.83642 29.3954C3.93607 29.4861 4.05846 29.5354 4.18442 29.5353C4.28258 29.5341 4.37898 29.5046 4.46518 29.4492C4.55138 29.3939 4.62474 29.3145 4.67882 29.218C4.85882 28.8893 4.78562 28.4525 4.51442 28.2284C4.37426 28.1089 4.26062 27.9514 4.18312 27.7692C4.10562 27.5869 4.06655 27.3854 4.06922 27.1816C4.06786 26.9668 4.11024 26.7548 4.19282 26.5633C4.27541 26.3718 4.39577 26.2064 4.54382 26.0811L4.20002 25.5036L3.82322 24.9523C3.52498 25.2091 3.28291 25.5459 3.11702 25.9348C2.95114 26.3237 2.86619 26.7535 2.86922 27.1887C2.8669 27.6212 2.95369 28.048 3.12215 28.4323C3.29061 28.8167 3.53571 29.1472 3.83642 29.3954Z" fill="white"/>
<path d="M15.6 11.9678C15.9314 11.9678 16.2 11.6513 16.2 11.261C16.2 10.8706 15.9314 10.5541 15.6 10.5541C15.2686 10.5541 15 10.8706 15 11.261C15 11.6513 15.2686 11.9678 15.6 11.9678Z" fill="white"/>
<path d="M16.2 9.14047C16.5313 9.14047 16.8 8.82401 16.8 8.43364C16.8 8.04327 16.5313 7.72681 16.2 7.72681C15.8686 7.72681 15.6 8.04327 15.6 8.43364C15.6 8.82401 15.8686 9.14047 16.2 9.14047Z" fill="white"/>
<path d="M18 11.261C18.3313 11.261 18.6 10.9445 18.6 10.5541C18.6 10.1637 18.3313 9.84729 18 9.84729C17.6686 9.84729 17.4 10.1637 17.4 10.5541C17.4 10.9445 17.6686 11.261 18 11.261Z" fill="white"/>
<path d="M18.6 8.43362C18.9314 8.43362 19.2 8.11716 19.2 7.72679C19.2 7.33642 18.9314 7.01996 18.6 7.01996C18.2686 7.01996 18 7.33642 18 7.72679C18 8.11716 18.2686 8.43362 18.6 8.43362Z" fill="white"/>
</g>
<defs>
<clipPath id="clip0_931_27514">
<rect width="36" height="36" fill="white"/>
</clipPath>
</defs>
</svg>
