<svg width="36" height="36" viewBox="0 0 36 36" fill="none" xmlns="http://www.w3.org/2000/svg">
<g clip-path="url(#clip0_835_29845)">
<path d="M33.9949 2.37811C33.9349 2.31151 33.8749 2.24371 33.8149 2.17951C31.8937 0.260107 28.8523 -0.422693 25.2475 0.255307C21.9885 0.874085 18.9787 2.42423 16.5823 4.71811C15.2076 6.08718 14.1711 7.75804 13.5553 9.59791C13.2482 10.524 12.7289 11.3655 12.039 12.0554C11.3491 12.7453 10.5076 13.2645 9.58153 13.5717C7.74076 14.1868 6.069 15.2231 4.69933 16.5981C0.293526 21.0045 -1.83587 29.4903 1.98313 33.6345L1.99933 33.6525C2.05393 33.7125 2.10553 33.7725 2.16193 33.8325C3.59773 35.2653 5.65933 36.0093 8.11933 36.0093C8.99474 36.0051 9.86787 35.9197 10.7275 35.7543C13.9865 35.1351 16.9963 33.5848 19.3927 31.2909C20.7679 29.9222 21.8044 28.2512 22.4197 26.4111C22.727 25.485 23.2464 24.6435 23.9364 23.9536C24.6264 23.2637 25.468 22.7445 26.3941 22.4373C28.2339 21.822 29.9047 20.7857 31.2733 19.4109C35.6701 15.0147 37.8001 6.56491 34.0231 2.40811C34.0141 2.39671 34.0039 2.38831 33.9949 2.37811ZM33.4447 14.0241C32.9469 12.7734 32.3237 11.5763 31.5847 10.4511C32.1628 9.45738 32.6552 8.41622 33.0565 7.33891C33.651 8.15627 34.1768 9.02143 34.6285 9.92551C34.4198 11.3387 34.0217 12.7173 33.4447 14.0241ZM27.2305 14.0619C26.5285 13.0704 25.7357 12.1464 24.8623 11.3019C25.9669 10.2424 26.9527 9.06562 27.8023 7.79251C28.6735 8.61185 29.4622 9.51457 30.1573 10.4877C29.3258 11.7902 28.3434 12.9899 27.2305 14.0619ZM23.0665 17.2365C20.8207 14.248 17.9711 11.7654 14.7031 9.95011C15.008 9.04323 15.4297 8.17995 15.9577 7.38211C18.5457 8.22512 20.9517 9.5482 23.0497 11.2821C22.5186 11.7025 21.946 12.0678 21.3409 12.3723C21.2183 12.4317 21.1195 12.5311 21.0608 12.6541C21.0022 12.7771 20.9871 12.9165 21.0182 13.0492C21.0493 13.1819 21.1246 13.3 21.2318 13.3842C21.339 13.4684 21.4716 13.5136 21.6079 13.5123C21.7 13.5132 21.791 13.4927 21.8737 13.4523C22.6142 13.0785 23.311 12.6239 23.9515 12.0969C24.839 12.944 25.6394 13.8779 26.3407 14.8845C25.3198 15.7623 24.2243 16.5492 23.0665 17.2365ZM28.4593 6.77311C29.0056 5.8889 29.5116 4.98037 29.9755 4.05031C30.7656 4.71497 31.4993 5.44386 32.1691 6.22951C31.8154 7.31282 31.3648 8.36206 30.8227 9.36451C30.1141 8.43168 29.3231 7.56439 28.4593 6.77311ZM32.9101 2.98291C32.8272 3.61352 32.7104 4.23922 32.5603 4.85731C31.9239 4.17247 31.24 3.53329 30.5137 2.94451C30.7159 2.50651 30.8881 2.11291 31.0309 1.77451C31.7307 2.05111 32.3699 2.46158 32.9125 2.98291H32.9101ZM29.5393 2.19631C29.0536 1.84516 28.5532 1.51486 28.0393 1.20631C28.6593 1.21398 29.2768 1.28454 29.8825 1.41691C29.7793 1.65211 29.6641 1.91491 29.5393 2.19631ZM33.5137 5.96491C33.6701 5.42011 33.8025 4.87571 33.9109 4.33171C34.4427 5.37762 34.7317 6.53003 34.7563 7.70311C34.3739 7.10094 33.958 6.52064 33.5107 5.96491H33.5137ZM25.4737 1.43431C25.6009 1.41091 25.7209 1.40131 25.8457 1.38091C26.9569 1.92455 28.0182 2.56482 29.0173 3.29431C28.569 4.20946 28.0792 5.10378 27.5497 5.97451C25.8237 4.56937 23.8953 3.43296 21.8299 2.60371C22.9926 2.07121 24.2143 1.67866 25.4695 1.43431H25.4737ZM20.3905 3.34051C22.7521 4.16896 24.9512 5.40261 26.8891 6.98611C26.0518 8.2592 25.0705 9.43153 23.9647 10.4799C21.8205 8.67255 19.3605 7.27729 16.7089 6.36451C16.9375 6.08851 17.1757 5.81971 17.4289 5.56471C18.3153 4.6978 19.3109 3.9501 20.3905 3.34051ZM9.95653 14.7111C10.1581 14.6451 10.3507 14.5611 10.5439 14.4783C10.9728 15.2741 11.4439 16.0464 11.9551 16.7919C10.6695 17.588 9.46227 18.5043 8.34973 19.5285C7.77442 18.4919 7.29638 17.4043 6.92173 16.2795C7.84612 15.6029 8.8699 15.0738 9.95653 14.7111ZM8.23453 28.2111C7.19589 27.236 6.27411 26.1435 5.48773 24.9555C6.2306 23.6908 7.11335 22.5136 8.11933 21.4461C8.90802 22.6379 9.82467 23.7398 10.8529 24.7323C9.8778 25.8108 9.00148 26.9747 8.23453 28.2099V28.2111ZM3.02533 32.9937C3.05551 32.3002 3.13572 31.6098 3.26533 30.9279C4.00274 31.7392 4.80543 32.4887 5.66533 33.1689C5.44633 33.6861 5.29153 34.0869 5.19853 34.3359C4.38436 34.0535 3.64238 33.5953 3.02533 32.9937ZM2.69833 28.2705C2.19737 27.5436 1.74922 26.7816 1.35733 25.9905C1.57668 24.5827 1.98328 23.2105 2.56633 21.9105C2.98627 22.9807 3.49735 24.0129 4.09393 24.9957C3.53064 26.0429 3.06353 27.1389 2.69833 28.2705ZM2.29273 29.7489C2.15379 30.3256 2.04286 30.9087 1.96033 31.4961C1.48404 30.4653 1.2315 29.3453 1.21933 28.2099C1.5522 28.7398 1.91042 29.2534 2.29273 29.7489ZM6.65533 33.9201C7.08893 34.2281 7.53673 34.5215 7.99873 34.8003C7.45024 34.7963 6.90315 34.7443 6.36373 34.6449C6.43393 34.4631 6.53113 34.2183 6.65533 33.9201ZM6.16633 32.0337C5.23161 31.2646 4.37397 30.4064 3.60553 29.4711C3.9108 28.3243 4.3278 27.2101 4.85053 26.1447C5.65485 27.278 6.57744 28.3224 7.60273 29.2605C7.08402 30.1637 6.60476 31.089 6.16633 32.0337ZM5.55013 17.4465C5.67373 17.3229 5.80213 17.2065 5.93113 17.0865C6.3405 18.2329 6.853 19.3399 7.46233 20.3937C6.45446 21.4334 5.55781 22.5754 4.78693 23.8011C4.19051 22.7287 3.69691 21.6023 3.31273 20.4369C3.92344 19.3458 4.67576 18.3403 5.55013 17.4465ZM10.5049 34.5747C10.3951 34.5951 10.2919 34.6035 10.1833 34.6215C9.11987 34.1026 8.10398 33.4915 7.14733 32.7951C7.50733 32.0067 7.97293 31.0671 8.53573 30.0723C10.245 31.4497 12.1483 32.5672 14.1841 33.3885C13.0097 33.9299 11.7744 34.3281 10.5049 34.5747ZM15.6133 32.6547C13.2697 31.8222 11.0856 30.5951 9.15553 29.0265C9.90909 27.7891 10.7756 26.6241 11.7439 25.5465C13.9461 27.3928 16.4759 28.8084 19.2013 29.7195C18.9919 29.9679 18.7747 30.2115 18.5413 30.4395C17.6648 31.3002 16.6806 32.044 15.6133 32.6523V32.6547ZM19.9657 28.7067C17.2681 27.8585 14.7614 26.4931 12.5857 24.6867C13.3862 23.9111 14.2958 23.2568 15.2857 22.7445C15.3562 22.7093 15.4191 22.6605 15.4708 22.601C15.5225 22.5415 15.5619 22.4723 15.5869 22.3976C15.6119 22.3228 15.6218 22.2439 15.6163 22.1652C15.6107 22.0866 15.5897 22.0098 15.5545 21.9393C15.5193 21.8688 15.4705 21.8059 15.411 21.7542C15.3515 21.7025 15.2824 21.6631 15.2076 21.6381C15.1328 21.6132 15.0539 21.6032 14.9752 21.6087C14.8966 21.6143 14.8198 21.6353 14.7493 21.6705C13.6259 22.2512 12.5947 22.995 11.6893 23.8779C10.6616 22.8881 9.75303 21.7816 8.98213 20.5809C10.1088 19.5185 11.3417 18.5748 12.6613 17.7645C15.0546 20.9068 18.0637 23.5279 21.5047 25.4673C21.4255 25.6551 21.3433 25.8411 21.2797 26.0355C20.9647 26.9805 20.5226 27.8783 19.9657 28.7043V28.7067ZM22.0561 24.4029C18.8137 22.568 15.9721 20.1016 13.6993 17.1495C14.7777 16.5492 15.8936 16.0189 17.0401 15.5619C17.188 15.5029 17.3063 15.3875 17.3691 15.2412C17.4319 15.095 17.434 14.9297 17.3749 14.7819C17.3159 14.6341 17.2005 14.5158 17.0543 14.453C16.908 14.3902 16.7428 14.3881 16.5949 14.4471C15.3545 14.9417 14.1486 15.5188 12.9853 16.1745C12.4845 15.4501 12.0238 14.6988 11.6053 13.9239C12.715 13.2156 13.6181 12.2269 14.2231 11.0577C17.2538 12.7581 19.9034 15.0622 22.0081 17.8275C21.0328 18.3585 20.0275 18.8325 18.9973 19.2471C18.8677 19.2987 18.7602 19.3939 18.6931 19.5163C18.6261 19.6386 18.6038 19.7805 18.6301 19.9175C18.6564 20.0545 18.7296 20.1781 18.8371 20.267C18.9447 20.3559 19.0798 20.4045 19.2193 20.4045C19.2954 20.4048 19.3708 20.3903 19.4413 20.3619C20.5691 19.9126 21.6685 19.3953 22.7335 18.8127C23.4346 19.8087 24.0758 20.8455 24.6535 21.9177C23.5991 22.5223 22.7076 23.3744 22.0561 24.4005V24.4029ZM26.0161 21.3003C25.9213 21.3315 25.8361 21.3747 25.7407 21.4095C25.1487 20.3059 24.4919 19.2382 23.7739 18.2121C24.9087 17.53 25.9861 16.7567 26.9953 15.8997C27.7506 17.1606 28.3607 18.5029 28.8139 19.9011C27.9528 20.4969 27.0114 20.9672 26.0179 21.2979L26.0161 21.3003ZM30.4225 18.5649C30.227 18.7586 30.0247 18.9454 29.8159 19.1247C29.3274 17.7114 28.6858 16.3557 27.9025 15.0819C29.0195 14.0266 30.0168 12.8513 30.8761 11.5773C31.6303 12.8129 32.2422 14.1299 32.7001 15.5031C32.0823 16.6205 31.3168 17.6495 30.4243 18.5625L30.4225 18.5649Z" fill="#16B364"/>
</g>
<defs>
<clipPath id="clip0_835_29845">
<rect width="36" height="36" fill="white"/>
</clipPath>
</defs>
</svg>
