<svg width="36" height="36" viewBox="0 0 36 36" fill="none" xmlns="http://www.w3.org/2000/svg">
<path d="M17.9981 20.4988C14.6891 20.4988 11.9969 23.0073 11.9969 26.0908C11.9969 29.5006 15.185 29.5006 17.9981 29.5006C20.8111 29.5006 23.9993 29.5006 23.9993 26.0908C23.9993 23.0073 21.3071 20.4988 17.9981 20.4988ZM17.9981 28.5004C14.5987 28.5004 12.9971 28.2628 12.9971 26.0907C12.9971 23.5587 15.2404 21.4989 17.9981 21.4989C20.7557 21.4989 22.9991 23.5587 22.9991 26.0907C22.9991 28.2628 21.3974 28.5004 17.9981 28.5004Z" fill="#16B364"/>
<path d="M16.3701 23.1913C16.1523 23.1122 15.9187 23.0869 15.689 23.1176C15.4593 23.1482 15.2405 23.2338 15.051 23.3671C14.6577 23.6425 14.3538 24.027 14.1767 24.4732C13.9997 24.9195 13.9572 25.4078 14.0547 25.8779C14.1013 26.1049 14.202 26.3173 14.3482 26.497C14.4944 26.6767 14.6819 26.8185 14.8947 26.9103C15.047 26.9708 15.2094 27.0018 15.3733 27.0016C15.7625 26.9667 16.1327 26.8178 16.4378 26.5736C16.7428 26.3294 16.9691 26.0007 17.0882 25.6285V25.6283C17.5016 24.5856 17.1863 23.5151 16.3701 23.1913ZM16.1583 25.2593C15.9474 25.7919 15.5108 26.0803 15.2634 25.9804C15.2008 25.9451 15.147 25.8962 15.106 25.8372C15.0649 25.7783 15.0377 25.7109 15.0263 25.64C14.9721 25.372 15.0001 25.0939 15.1066 24.842C15.2018 24.5858 15.3721 24.3642 15.5952 24.2064C15.6834 24.1447 15.7869 24.1084 15.8943 24.1014C15.9309 24.1011 15.9672 24.1078 16.0013 24.1211C16.2494 24.2195 16.3696 24.7272 16.1583 25.2593ZM19.6453 23.1913C18.829 23.5151 18.5138 24.5856 18.9272 25.6283V25.6286C19.0463 26.0007 19.2726 26.3295 19.5776 26.5737C19.8826 26.818 20.2529 26.9668 20.6421 27.0017C20.806 27.0018 20.9684 26.9708 21.1207 26.9103C21.937 26.5865 22.2523 25.516 21.8389 24.4731C21.4248 23.4306 20.4614 22.8675 19.6453 23.1913ZM20.752 25.9804C20.5042 26.0803 20.0683 25.7919 19.8571 25.2593H19.8568C19.6459 24.7272 19.766 24.2195 20.0141 24.1211C20.2621 24.0237 20.6978 24.3097 20.909 24.842C21.1203 25.3741 21.0004 25.882 20.752 25.9804Z" fill="#16B364"/>
<path d="M32.9871 5.16485C33.007 5.02414 33.0039 4.88114 32.9779 4.74136L32.9775 4.73867C32.9732 4.7171 32.9727 4.68903 32.967 4.6701C32.9613 4.64045 32.9454 4.61489 32.9378 4.58582C32.9318 4.57106 32.9296 4.55512 32.9223 4.54111C32.8554 4.31004 32.7311 4.0997 32.5608 3.92978C32.3905 3.75986 32.18 3.63591 31.9488 3.56954C25.0426 1.59348 22.5232 5.29261 21.8807 6.565C20.633 6.13677 19.3159 5.94741 17.9982 6.00684C16.6806 5.94774 15.3637 6.13719 14.1162 6.56529C13.4746 5.2929 10.9567 1.59213 4.05422 3.56784C3.80407 3.63483 3.57712 3.76922 3.39811 3.95636C3.21911 4.1435 3.09493 4.3762 3.03911 4.62908C3.03132 4.65639 3.03067 4.68727 3.02499 4.71552C3.02405 4.72443 3.01878 4.73164 3.01837 4.74066C3.01825 4.74347 3.01971 4.74594 3.0196 4.74875C2.99476 4.89007 2.99187 5.03437 3.01104 5.17657C3.28854 6.98467 4.27341 11.1601 7.49765 12.5107C7.12554 13.2794 6.87836 14.1025 6.76544 14.9491C6.70906 15.3583 6.6814 15.7674 6.65479 16.163C6.63146 16.6463 6.581 17.128 6.50364 17.6057C6.43444 18.0274 6.30111 18.4361 6.10829 18.8176C5.69818 19.5052 5.40793 20.2575 5.24995 21.0424C5.14886 21.7073 5.10888 22.3801 5.13051 23.0523C5.1696 24.6291 5.39154 26.6617 6.77464 28.396C7.97471 29.8671 9.54398 30.9931 11.322 31.6588C11.9201 31.8652 12.5412 31.9975 13.1714 32.0529C13.5245 32.0981 13.8581 32.1409 14.1856 32.2117C14.5758 32.2959 14.9682 32.4082 15.3479 32.5171C16.2037 32.8043 17.0962 32.9674 17.9983 33.0013C18.9003 32.9674 19.7928 32.8043 20.6485 32.5171C21.028 32.4082 21.4204 32.2959 21.8106 32.2116C22.138 32.1408 22.4716 32.0981 22.8247 32.0529C23.455 31.9975 24.0761 31.8651 24.6742 31.6588C26.4522 30.993 28.0215 29.867 29.2215 28.3959C30.6046 26.6616 30.8266 24.629 30.8657 23.0521C30.8873 22.3799 30.8473 21.7072 30.7463 21.0424C30.5883 20.2575 30.2981 19.5052 29.8879 18.8176C29.6951 18.4362 29.5618 18.0276 29.4926 17.6059C29.4152 17.1286 29.3648 16.6474 29.3417 16.1644C29.3151 15.7684 29.2875 15.3586 29.2308 14.9491C29.1179 14.1025 28.8707 13.2794 28.4984 12.5108C31.7229 11.1601 32.7079 6.98409 32.9871 5.16485ZM31.1495 4.39289C29.1416 4.69337 26.2857 5.62438 25.1835 8.40568C24.4584 7.81261 23.6587 7.31712 22.8047 6.93187C23.3391 5.86976 25.3788 2.94674 31.1495 4.39289ZM13.1919 6.93216C12.3379 7.31733 11.5381 7.81278 10.8129 8.40586C9.7106 5.62426 6.85458 4.69331 4.84657 4.39284C10.6188 2.94264 12.6589 5.87187 13.1919 6.93216ZM4.04537 5.3024C6.10284 5.48501 9.12478 6.25503 10.0142 9.12489C9.89187 9.24679 9.77091 9.37051 9.6537 9.49891C9.03809 10.1579 8.48172 10.8698 7.99106 11.6264C5.28945 10.5751 4.3483 7.06027 4.04537 5.3024ZM28.5086 17.7849C28.5957 18.3062 28.7622 18.8111 29.0021 19.282C29.3592 19.8745 29.6148 20.5225 29.7584 21.1992C29.85 21.804 29.8861 22.416 29.866 23.0274C29.8309 24.4479 29.6367 26.271 28.4397 27.7723C27.3459 29.0999 25.9237 30.118 24.3144 30.7256C23.791 30.9018 23.2482 31.0143 22.6979 31.0609C22.3394 31.1068 21.9687 31.1542 21.5993 31.234C21.1771 31.3253 20.7686 31.4423 20.3734 31.5556C19.6067 31.8159 18.8069 31.9659 17.998 32.0013C17.1894 31.966 16.39 31.8159 15.6237 31.5556C15.2283 31.4426 14.8196 31.3254 14.3971 31.234C14.0277 31.1542 13.657 31.1068 13.2985 31.0609C12.7482 31.0143 12.2054 30.9018 11.682 30.7256C10.0727 30.1181 8.65047 29.0999 7.55667 27.7723C6.35959 26.271 6.16549 24.4479 6.13033 23.0277C6.11028 22.4162 6.14633 21.8042 6.23804 21.1992C6.38162 20.5225 6.63722 19.8746 6.99429 19.2821C7.23428 18.8111 7.40072 18.3061 7.48781 17.7847C7.57208 17.2701 7.62712 16.7512 7.65267 16.2304C7.67951 15.8346 7.70465 15.4605 7.75646 15.0859C7.85897 14.2907 8.09787 13.5191 8.46266 12.8052C8.98897 11.8479 9.6377 10.9632 10.3925 10.1735C11.2933 9.17657 12.3926 8.37892 13.6198 7.83174C14.847 7.28456 16.175 6.99992 17.5187 6.9961C17.6701 6.9961 17.8222 6.99979 17.9741 7.00712C17.9902 7.00764 18.0059 7.00764 18.022 7.00712C19.4411 6.9434 20.8568 7.19423 22.1676 7.74163C23.4784 8.28904 24.6521 9.11949 25.6044 10.1735C26.359 10.9632 27.0076 11.8479 27.5338 12.8052C27.8987 13.5191 28.1377 14.2907 28.2402 15.0859C28.2922 15.461 28.3174 15.8353 28.3442 16.2319C28.3696 16.7522 28.4244 17.2707 28.5086 17.7849ZM28.0052 11.6265C27.5147 10.8699 26.9584 10.158 26.3429 9.49897C26.2256 9.37051 26.1046 9.24673 25.9822 9.12483C26.8716 6.25515 29.8933 5.48507 31.9508 5.30245C31.6445 7.07346 30.7014 10.5773 28.0052 11.6265Z" fill="#16B364"/>
<path d="M14.4973 17.7482C14.4973 15.9254 13.6112 14.4976 12.4798 14.4976C11.3485 14.4976 10.4621 15.9254 10.4621 17.7482C10.4621 19.5711 11.3485 20.9989 12.4798 20.9989C13.6112 20.9989 14.4973 19.5711 14.4973 17.7482ZM12.4798 15.4978C12.8946 15.4978 13.3674 16.2622 13.474 17.3112C13.1384 17.2137 12.7857 17.1895 12.44 17.2403C12.0942 17.291 11.7634 17.4154 11.4699 17.6051C11.5098 16.4092 12.0276 15.4978 12.4798 15.4978ZM11.6094 18.8323C11.7453 18.6414 11.9248 18.4857 12.1331 18.3783C12.3413 18.2708 12.5722 18.2147 12.8066 18.2146C13.0287 18.2156 13.2478 18.266 13.4481 18.3621C13.3087 19.317 12.8704 19.9987 12.4798 19.9987C12.1573 19.9987 11.8031 19.531 11.6094 18.8323ZM23.4821 14.4976C22.3508 14.4976 21.4644 15.9254 21.4644 17.7482C21.4644 19.5711 22.3508 20.9989 23.4821 20.9989C24.6134 20.9989 25.4996 19.5711 25.4996 17.7482C25.4996 15.9254 24.6134 14.4976 23.4821 14.4976ZM23.4821 19.9987C23.0916 19.9987 22.653 19.317 22.5136 18.3621C22.7138 18.266 22.933 18.2156 23.1551 18.2146C23.3894 18.2148 23.6203 18.2709 23.8285 18.3783C24.0368 18.4857 24.2164 18.6413 24.3523 18.8321C24.1589 19.5308 23.8046 19.9987 23.4821 19.9987ZM22.4877 17.3111C22.5944 16.2622 23.0674 15.4977 23.4821 15.4977C23.9344 15.4977 24.4518 16.4092 24.4918 17.6051C24.1983 17.4154 23.8675 17.2909 23.5217 17.2402C23.176 17.1895 22.8233 17.2137 22.4877 17.3111Z" fill="#16B364"/>
<path d="M2.70709 1.29291L34.7071 33.2929" stroke="#16B364" stroke-width="2" stroke-linecap="round"/>
</svg>
