<svg width="36" height="36" viewBox="0 0 36 36" fill="none" xmlns="http://www.w3.org/2000/svg">
<g clip-path="url(#clip0_931_27521)">
<path d="M34.999 18V16.9093C34.999 11.8017 27.5319 7.80035 17.9996 7.80035C8.46732 7.80035 1.0002 11.8017 1.0002 16.9093V18C1.00093 18.6256 1.50786 19.1326 2.13352 19.1333V21.527C1.87489 21.6328 1.64748 21.8027 1.4728 22.0208C1.16058 22.4055 0.993326 22.8877 1.0002 23.3832C1.0002 26.0388 2.80639 28.1996 5.02647 28.1996H30.9727C31.532 28.192 32.0822 28.0571 32.5816 27.8052C33.081 27.5533 33.5166 27.1911 33.8552 26.7459C34.6129 25.7904 35.017 24.6024 34.999 23.3831C35.0113 22.9969 34.9106 22.6155 34.7093 22.2857C34.508 21.9559 34.2148 21.692 33.8657 21.5264V19.1332C34.4913 19.1326 34.9983 18.6256 34.999 18ZM32.9765 26.0305C32.7429 26.3438 32.4411 26.5998 32.0939 26.7793C31.7468 26.9587 31.3634 27.0569 30.9727 27.0664H5.02647C3.43138 27.0664 2.13345 25.4141 2.13345 23.3832C2.12856 23.1488 2.20556 22.92 2.35119 22.7363C2.39328 22.6767 2.44834 22.6275 2.51223 22.5923C2.57612 22.5571 2.64716 22.5369 2.72 22.5332H8.86767L10.2095 24.0428C10.2627 24.1026 10.3279 24.1505 10.4009 24.1833C10.4739 24.2161 10.553 24.233 10.6331 24.233C10.7131 24.233 10.7923 24.2161 10.8653 24.1833C10.9383 24.1505 11.0035 24.1026 11.0567 24.0428L13.368 21.4426C13.9135 22.1483 14.6163 22.7169 15.4204 23.103C16.2245 23.4891 17.1077 23.6821 17.9995 23.6665C18.8914 23.6821 19.7746 23.4892 20.5787 23.103C21.3827 22.7169 22.0855 22.1483 22.631 21.4426L24.9423 24.0428C24.9955 24.1026 25.0607 24.1505 25.1337 24.1833C25.2068 24.2161 25.2859 24.233 25.3659 24.233C25.446 24.233 25.5251 24.2161 25.5981 24.1833C25.6711 24.1505 25.7364 24.1026 25.7895 24.0428L27.1313 22.5332H33.279C33.5914 22.5332 33.8656 22.9305 33.8656 23.3832C33.8835 24.3417 33.5694 25.277 32.9765 26.0305ZM7.86039 21.3999H3.26677V19.1333H5.84556L7.86039 21.3999ZM7.36196 19.1333H13.9044L10.6332 22.8137L7.36196 19.1333ZM14.1494 20.5635L15.4208 19.1332H20.5784L21.8497 20.5635C21.4098 21.1732 20.8313 21.6697 20.1619 22.0121C19.4926 22.3546 18.7514 22.5331 17.9996 22.5331C17.2477 22.5331 16.5066 22.3546 15.8372 22.0121C15.1678 21.6697 14.5894 21.1732 14.1494 20.5635ZM25.366 22.8137L22.0947 19.1333H28.6372L25.366 22.8137ZM30.1536 19.1333H32.7324V21.3999H28.1388L30.1536 19.1333ZM2.13352 18V16.9093C2.13352 13.3637 6.76127 10.3523 13.1392 9.31795C13.5719 9.56697 13.9334 9.92292 14.1892 10.3517C14.4449 10.7805 14.5863 11.2678 14.5997 11.7669C14.5997 11.9171 14.6594 12.0613 14.7657 12.1675C14.8719 12.2738 15.0161 12.3335 15.1663 12.3335C15.3166 12.3335 15.4608 12.2738 15.567 12.1675C15.6733 12.0613 15.733 11.9171 15.733 11.7669C15.715 10.7802 15.333 9.83492 14.6602 9.11289C15.3328 9.04057 16.0077 8.99065 16.6836 8.96322C18.0669 9.18906 19.0949 10.3657 19.1329 11.7669C19.1329 11.9171 19.1926 12.0613 19.2988 12.1675C19.4051 12.2738 19.5492 12.3335 19.6995 12.3335C19.8498 12.3335 19.9939 12.2738 20.1001 12.1675C20.2064 12.0613 20.2661 11.9171 20.2661 11.7669C20.2611 11.2415 20.1519 10.7223 19.945 10.2394C19.738 9.75648 19.4374 9.31938 19.0604 8.95339C20.052 8.98653 21.0201 9.06349 21.954 9.18441C22.452 9.41214 22.8763 9.77472 23.1788 10.2311C23.4814 10.6875 23.6501 11.2195 23.666 11.7669C23.666 11.9171 23.7257 12.0613 23.8319 12.1675C23.9382 12.2738 24.0823 12.3335 24.2326 12.3335C24.3829 12.3335 24.527 12.2738 24.6333 12.1675C24.7395 12.0613 24.7992 11.9171 24.7992 11.7669C24.7924 10.9704 24.5426 10.1951 24.0834 9.54432C29.8212 10.7466 33.8656 13.5946 33.8656 16.9092V17.9999H2.13352V18Z" fill="white"/>
<path d="M4.80243 24.9641C4.74822 24.9129 4.68473 24.8725 4.61537 24.8451C4.54777 24.8142 4.47431 24.7982 4.39999 24.7982C4.32566 24.7982 4.2522 24.8142 4.18461 24.8451C4.11602 24.8739 4.05285 24.9141 3.99781 24.9641C3.94646 25.0183 3.90598 25.0818 3.87855 25.1512C3.8496 25.2193 3.83426 25.2924 3.83339 25.3665C3.83148 25.4407 3.84692 25.5145 3.87848 25.5817C3.90736 25.6504 3.94769 25.7136 3.99774 25.7688C4.05279 25.8188 4.11596 25.859 4.18454 25.8878C4.28763 25.932 4.40159 25.9443 4.51173 25.9231C4.62187 25.9018 4.72312 25.8481 4.80243 25.7688C4.8523 25.7136 4.89253 25.6503 4.92142 25.5817C4.95134 25.5139 4.9668 25.4406 4.9668 25.3665C4.9668 25.2924 4.95134 25.2191 4.92142 25.1512C4.89269 25.0825 4.85245 25.0193 4.80243 24.9641ZM6.50237 23.8308C6.44723 23.7808 6.38397 23.7405 6.31531 23.7118C6.24771 23.6809 6.17425 23.6649 6.09993 23.6649C6.0256 23.6649 5.95214 23.6809 5.88455 23.7118C5.81596 23.7405 5.75279 23.7808 5.69775 23.8308C5.6464 23.8849 5.60592 23.9484 5.57849 24.0179C5.54954 24.086 5.5342 24.1591 5.53333 24.2331C5.53142 24.3074 5.54686 24.3811 5.57842 24.4484C5.60731 24.5171 5.64761 24.5803 5.69762 24.6355C5.77684 24.7148 5.87804 24.7685 5.98813 24.7898C6.09822 24.811 6.21214 24.7987 6.31517 24.7545C6.38384 24.7257 6.4471 24.6855 6.50223 24.6355C6.55211 24.5802 6.59234 24.517 6.62123 24.4484C6.65297 24.3812 6.66851 24.3075 6.66658 24.2331C6.66565 24.1591 6.65025 24.086 6.62123 24.0179C6.59385 23.9485 6.55351 23.885 6.50237 23.8308ZM8.20231 24.9641C8.1481 24.9129 8.08461 24.8725 8.01525 24.8451C7.94765 24.8142 7.8742 24.7982 7.79987 24.7982C7.72554 24.7982 7.65208 24.8142 7.58449 24.8451C7.5159 24.8739 7.45273 24.9141 7.39769 24.9641C7.34634 25.0183 7.30586 25.0818 7.27843 25.1512C7.24948 25.2193 7.23414 25.2924 7.23328 25.3665C7.23136 25.4407 7.2468 25.5145 7.27836 25.5817C7.30396 25.652 7.34461 25.7158 7.39747 25.7686C7.45033 25.8215 7.51412 25.8621 7.58435 25.8877C7.68743 25.9319 7.8014 25.9442 7.91154 25.923C8.02168 25.9018 8.12294 25.8481 8.20224 25.7688C8.25212 25.7136 8.29234 25.6503 8.32124 25.5817C8.35116 25.5139 8.36661 25.4406 8.36661 25.3665C8.36661 25.2924 8.35116 25.2191 8.32124 25.1512C8.29256 25.0825 8.25233 25.0192 8.20231 24.9641ZM28.6016 24.9641C28.5746 24.9398 28.5462 24.9171 28.5167 24.896C28.4851 24.8745 28.4508 24.8574 28.4146 24.8451C28.3824 24.8288 28.348 24.8172 28.3125 24.8108C28.2206 24.7921 28.1255 24.7963 28.0356 24.8231C27.9457 24.8498 27.8638 24.8982 27.797 24.964C27.7456 25.0182 27.7051 25.0817 27.6777 25.1511C27.648 25.219 27.6326 25.2923 27.6326 25.3664C27.6326 25.4404 27.648 25.5137 27.6777 25.5816C27.7033 25.6518 27.744 25.7156 27.7968 25.7685C27.8497 25.8213 27.9135 25.862 27.9837 25.8876C28.0516 25.9175 28.1249 25.933 28.1991 25.933C28.2732 25.933 28.3466 25.9175 28.4145 25.8876C28.4831 25.8588 28.5464 25.8186 28.6015 25.7686C28.6514 25.7134 28.6916 25.6501 28.7205 25.5815C28.7504 25.5137 28.7659 25.4404 28.7659 25.3663C28.7659 25.2922 28.7504 25.2189 28.7205 25.151C28.6931 25.0818 28.6527 25.0183 28.6016 24.9641ZM30.3015 23.8308C30.2464 23.7808 30.1831 23.7405 30.1145 23.7118C30.0469 23.6809 29.9734 23.6649 29.8991 23.6649C29.8248 23.6649 29.7513 23.6809 29.6837 23.7118C29.6135 23.7374 29.5497 23.778 29.4968 23.8309C29.444 23.8838 29.4033 23.9475 29.3777 24.0178C29.3336 24.1209 29.3214 24.2348 29.3426 24.3449C29.3639 24.4549 29.4176 24.5561 29.4969 24.6354C29.5762 24.7147 29.6774 24.7684 29.7875 24.7896C29.8976 24.8108 30.0115 24.7985 30.1145 24.7543C30.1832 24.7256 30.2465 24.6854 30.3016 24.6353C30.3515 24.5801 30.3917 24.5169 30.4206 24.4483C30.4523 24.3811 30.4679 24.3074 30.4659 24.2331C30.465 24.1591 30.4495 24.086 30.4205 24.0179C30.393 23.9485 30.3527 23.8851 30.3015 23.8308ZM32.0015 24.9641C31.9745 24.9398 31.9461 24.9171 31.9165 24.896C31.885 24.8745 31.8506 24.8573 31.8144 24.8451C31.7822 24.8288 31.7478 24.8172 31.7123 24.8108C31.6377 24.7942 31.5603 24.7942 31.4857 24.8108C31.4502 24.8172 31.4158 24.8287 31.3836 24.8451C31.3475 24.8574 31.3133 24.8745 31.2818 24.896C31.2521 24.917 31.2237 24.9397 31.1968 24.9641C31.1454 25.0183 31.105 25.0818 31.0775 25.1512C31.0478 25.219 31.0324 25.2923 31.0324 25.3664C31.0324 25.4405 31.0478 25.5138 31.0775 25.5817C31.1031 25.6519 31.1438 25.7157 31.1966 25.7685C31.2495 25.8214 31.3133 25.8621 31.3835 25.8877C31.4514 25.9176 31.5247 25.933 31.5989 25.933C31.6731 25.933 31.7464 25.9176 31.8143 25.8877C31.8829 25.8589 31.9462 25.8187 32.0013 25.7687C32.0512 25.7134 32.0914 25.6502 32.1203 25.5816C32.1503 25.5138 32.1657 25.4405 32.1657 25.3664C32.1657 25.2922 32.1503 25.2189 32.1203 25.1511C32.093 25.0818 32.0526 25.0183 32.0015 24.9641ZM20.6685 24.9641C20.6143 24.9129 20.5508 24.8725 20.4815 24.8451C20.4139 24.8142 20.3404 24.7982 20.2661 24.7982C20.1917 24.7982 20.1183 24.8142 20.0507 24.8451C19.9821 24.8739 19.9189 24.9141 19.8639 24.9641C19.8126 25.0183 19.7721 25.0818 19.7446 25.1512C19.7131 25.2185 19.6976 25.2922 19.6995 25.3665C19.6984 25.4401 19.7119 25.5133 19.7391 25.5817C19.772 25.6495 19.814 25.7124 19.8638 25.7688C19.9431 25.8481 20.0443 25.9019 20.1543 25.9231C20.2644 25.9443 20.3784 25.932 20.4814 25.8878C20.5501 25.859 20.6133 25.8188 20.6684 25.7688C20.7182 25.7123 20.76 25.6494 20.793 25.5817C20.8204 25.5133 20.8339 25.4401 20.8328 25.3665C20.8347 25.2921 20.8192 25.2184 20.7874 25.1512C20.7587 25.0825 20.7185 25.0192 20.6685 24.9641ZM22.3685 23.8308C22.3133 23.7808 22.2501 23.7405 22.1814 23.7118C22.1138 23.6809 22.0403 23.6649 21.966 23.6649C21.8917 23.6649 21.8182 23.6809 21.7506 23.7118C21.6804 23.7374 21.6166 23.778 21.5637 23.8309C21.5109 23.8838 21.4702 23.9475 21.4446 24.0178C21.4005 24.1209 21.3883 24.2348 21.4095 24.3449C21.4308 24.4549 21.4845 24.5561 21.5638 24.6354C21.6431 24.7147 21.7443 24.7684 21.8544 24.7896C21.9645 24.8108 22.0784 24.7985 22.1815 24.7543C22.2501 24.7256 22.3134 24.6854 22.3685 24.6353C22.4184 24.5801 22.4586 24.5169 22.4875 24.4483C22.5193 24.3811 22.5348 24.3074 22.5328 24.2331C22.5319 24.1591 22.5165 24.086 22.4874 24.0179C22.46 23.9485 22.4196 23.8851 22.3685 23.8308ZM24.0684 24.9641C24.0142 24.9129 23.9507 24.8725 23.8813 24.8451C23.8137 24.8142 23.7403 24.7982 23.666 24.7982C23.5916 24.7982 23.5182 24.8142 23.4506 24.8451C23.382 24.8739 23.3188 24.9141 23.2638 24.9641C23.2124 25.0183 23.1719 25.0818 23.1445 25.1512C23.113 25.2185 23.0975 25.2922 23.0994 25.3665C23.0983 25.4401 23.1117 25.5133 23.1389 25.5817C23.1718 25.6495 23.2138 25.7124 23.2637 25.7688C23.3429 25.8481 23.4441 25.9019 23.5542 25.9231C23.6643 25.9443 23.7782 25.932 23.8813 25.8878C23.9499 25.859 24.0132 25.8188 24.0683 25.7688C24.1181 25.7123 24.1599 25.6494 24.1928 25.5817C24.2203 25.5133 24.2338 25.4401 24.2327 25.3665C24.2346 25.2921 24.2191 25.2184 24.1873 25.1512C24.1586 25.0825 24.1184 25.0192 24.0684 24.9641ZM12.7354 24.9641C12.6259 24.863 12.4822 24.8068 12.3331 24.8068C12.184 24.8068 12.0404 24.863 11.9308 24.9641C11.8795 25.0183 11.839 25.0818 11.8116 25.1512C11.7818 25.219 11.7664 25.2923 11.7664 25.3664C11.7664 25.4405 11.7818 25.5138 11.8116 25.5817C11.8372 25.6519 11.8778 25.7157 11.9307 25.7685C11.9835 25.8214 12.0473 25.8621 12.1175 25.8877C12.1854 25.9176 12.2588 25.933 12.3329 25.933C12.4071 25.933 12.4804 25.9176 12.5483 25.8877C12.617 25.8589 12.6802 25.8187 12.7354 25.7687C12.7852 25.7134 12.8255 25.6502 12.8544 25.5816C12.8843 25.5138 12.8997 25.4405 12.8997 25.3664C12.8997 25.2922 12.8843 25.2189 12.8544 25.1511C12.827 25.0818 12.7866 25.0183 12.7354 24.9641ZM14.4354 23.8308C14.3802 23.7808 14.317 23.7405 14.2483 23.7118C14.1807 23.6809 14.1073 23.6649 14.0329 23.6649C13.9586 23.6649 13.8852 23.6809 13.8176 23.7118C13.7473 23.7374 13.6835 23.778 13.6307 23.8309C13.5778 23.8838 13.5372 23.9475 13.5116 24.0178C13.48 24.0851 13.4645 24.1588 13.4664 24.2331C13.4653 24.3068 13.4788 24.38 13.506 24.4484C13.5389 24.5162 13.5809 24.5791 13.6308 24.6355C13.71 24.7148 13.8112 24.7685 13.9213 24.7898C14.0314 24.811 14.1453 24.7987 14.2483 24.7545C14.317 24.7257 14.3802 24.6855 14.4354 24.6355C14.4853 24.5802 14.5255 24.517 14.5544 24.4484C14.5862 24.3812 14.6017 24.3075 14.5997 24.2331C14.5988 24.1591 14.5834 24.086 14.5544 24.0179C14.5269 23.9485 14.4866 23.885 14.4354 23.8308ZM16.1353 24.9641C16.0257 24.863 15.8821 24.8068 15.733 24.8068C15.5839 24.8068 15.4403 24.863 15.3307 24.9641C15.2794 25.0183 15.2389 25.0818 15.2114 25.1512C15.1817 25.219 15.1663 25.2923 15.1663 25.3664C15.1663 25.4405 15.1817 25.5138 15.2114 25.5817C15.237 25.6519 15.2777 25.7157 15.3305 25.7685C15.3834 25.8214 15.4472 25.8621 15.5174 25.8877C15.5853 25.9176 15.6586 25.933 15.7328 25.933C15.807 25.933 15.8803 25.9176 15.9482 25.8877C16.0169 25.8589 16.0801 25.8187 16.1353 25.7687C16.1851 25.7134 16.2254 25.6502 16.2542 25.5816C16.2842 25.5138 16.2996 25.4405 16.2996 25.3664C16.2996 25.2922 16.2842 25.2189 16.2542 25.1511C16.2269 25.0818 16.1865 25.0183 16.1353 24.9641Z" fill="white"/>
</g>
<defs>
<clipPath id="clip0_931_27521">
<rect width="34" height="34" fill="white" transform="translate(1 1)"/>
</clipPath>
</defs>
</svg>
