<svg width="36" height="36" viewBox="0 0 36 36" fill="none" xmlns="http://www.w3.org/2000/svg">
<g clip-path="url(#clip0_931_27528)">
<path d="M35.6642 22.0108C34.5835 20.5753 33.5027 20.5753 30.8609 21.951L25.6974 25.121C24.9769 25.5396 23.3558 25.6593 21.8548 25.6593C22.155 25.121 22.0349 24.463 21.4946 23.6855C20.5339 22.3098 18.9128 21.4725 17.1716 21.4725H14.83C13.5692 21.4725 12.3683 21.1136 11.4077 20.3959C9.24125 18.7772 5.85348 20.5385 4.20283 21.589V20.3361H0V35.8871H4.20283V34.0927H12.0081C13.2089 34.0927 14.4698 33.9731 15.6706 33.9133L23.4758 32.717C23.7761 32.717 24.0762 32.6573 24.3164 32.5974C25.0369 32.4777 25.6974 32.1189 26.2978 31.5806L35.3639 24.4032C36.0845 23.8051 36.2046 22.7285 35.6642 22.0108ZM3.00199 34.6908H1.20077V21.5323H3.00199V34.6908ZM34.6435 23.6257L25.5173 30.6835L25.4572 30.7432C25.037 31.1021 24.6167 31.3413 24.1364 31.4012H24.0764C23.8362 31.461 23.6561 31.461 23.4159 31.461L15.4905 32.6573C14.3498 32.8367 13.1489 32.8965 12.0082 32.8965H4.20283V23.0275C5.64381 22.0107 9.00611 20.0968 10.6872 21.4126C11.828 22.25 13.329 22.7284 14.83 22.7284H17.1716C18.5526 22.7284 19.8134 23.3265 20.5939 24.5228C20.8341 24.8817 20.8942 25.2405 20.8341 25.3602C20.654 25.6593 19.9335 25.7788 19.153 25.8387H13.0889C11.2277 25.8387 10.0868 26.7359 10.0868 28.2312C10.0868 28.59 10.327 28.8292 10.6872 28.8292C11.0475 28.8292 11.2876 28.59 11.2876 28.2312C11.2876 27.9321 11.2876 27.0349 13.0888 27.0349H19.5133C22.3352 27.0947 24.977 27.0349 26.3579 26.3172L31.5215 23.1471C34.0432 21.8911 34.2833 22.1901 34.7637 22.9079C34.8836 23.0874 34.8836 23.4463 34.6435 23.6257ZM4.68318 18.9005C4.80328 19.0202 4.9834 19.1397 5.16353 19.1397H30.861C31.1011 19.1397 31.2812 19.0201 31.3413 18.8407L33.5028 15.85C33.6229 15.6706 33.6829 15.4314 33.5628 15.2519C33.4427 15.0725 33.2626 14.9529 33.0224 14.9529H31.8078C31.5018 7.83264 25.7601 2.11292 18.6127 1.80802V1.19619H19.8135C20.1738 1.19619 20.4139 0.956966 20.4139 0.598095C20.4139 0.239224 20.1737 0 19.8134 0H16.211C15.8508 0 15.6106 0.239224 15.6106 0.598095C15.6106 0.956966 15.8508 1.19619 16.211 1.19619H17.4118V1.80802C10.2644 2.11292 4.52276 7.83264 4.21669 14.9529H3.00199C2.76185 14.9529 2.52164 15.1323 2.46162 15.3117C2.40161 15.4912 2.40161 15.7304 2.52164 15.9098L4.68318 18.9005ZM18.0122 2.99061C24.7968 2.99061 30.3205 8.31389 30.6208 14.953H5.40367C5.76391 8.31382 11.2876 2.99061 18.0122 2.99061ZM4.80321 16.1492H31.8215L30.5607 17.9435H5.46368L4.20283 16.1492H4.80321Z" fill="white"/>
<path d="M18.0122 4.18677C13.9895 4.18677 10.2069 6.33999 8.10549 9.86891C7.98539 10.168 8.04547 10.5269 8.34563 10.7063C8.46574 10.7661 8.52575 10.7661 8.64586 10.7661C8.886 10.7661 9.06612 10.6464 9.18622 10.467C10.9874 7.35682 14.4098 5.38303 18.0122 5.38303C18.3725 5.38303 18.6126 5.1438 18.6126 4.78493C18.6126 4.42606 18.3725 4.18677 18.0122 4.18677Z" fill="white"/>
</g>
<defs>
<clipPath id="clip0_931_27528">
<rect width="36" height="36" fill="white"/>
</clipPath>
</defs>
</svg>
