<svg width="36" height="36" viewBox="0 0 36 36" fill="none" xmlns="http://www.w3.org/2000/svg">
<g clip-path="url(#clip0_835_28954)">
<path d="M8.98083 33.5887C11.3861 34.9774 16.1758 36.0917 21.2256 27.9498C21.3708 27.7121 21.4284 27.4311 21.3884 27.1554C21.9794 26.4142 22.5259 25.6385 23.0249 24.8324C23.1154 24.6858 23.173 24.5213 23.1937 24.3503C23.2145 24.1793 23.1979 24.0059 23.1451 23.8419C23.9411 22.9186 24.6614 21.9326 25.299 20.8936C25.3894 20.747 25.447 20.5826 25.4678 20.4116C25.4885 20.2406 25.4719 20.0671 25.4191 19.9032C26.2151 18.9799 26.9353 17.9941 27.5728 16.9552C27.6633 16.8085 27.7209 16.644 27.7417 16.473C27.7625 16.3019 27.7459 16.1284 27.6932 15.9644C28.4891 15.0412 29.2093 14.0553 29.8469 13.0164C29.958 12.839 30.0208 12.6356 30.029 12.4264C30.0372 12.2172 29.9906 12.0095 29.8937 11.8239C29.7998 11.6396 29.6593 11.4831 29.4861 11.37C29.3129 11.2569 29.1131 11.1911 28.9066 11.1793C28.3705 11.1466 27.8335 11.133 27.2964 11.1387C29.2387 6.20465 27.2874 2.77834 27.198 2.62716C27.1455 2.53775 27.0707 2.4635 26.9809 2.41165C26.8911 2.3598 26.7894 2.33214 26.6857 2.33136C26.51 2.32964 22.5668 2.35265 19.2662 6.50014C19.0024 6.03224 18.722 5.57385 18.4257 5.12585C18.3122 4.95294 18.1553 4.81279 17.9707 4.71937C17.7862 4.62595 17.5804 4.58252 17.3738 4.5934C17.1648 4.6024 16.9618 4.66587 16.7848 4.77753C16.6079 4.88918 16.4632 5.04515 16.3652 5.22995C15.7839 6.30171 15.2901 7.41862 14.8885 8.56979C14.7201 8.60594 14.5616 8.67821 14.424 8.78162C14.2863 8.88503 14.1727 9.01711 14.0911 9.16872C13.5099 10.2404 13.0161 11.3572 12.6146 12.5083C12.4462 12.5446 12.2877 12.6169 12.1501 12.7203C12.0124 12.8238 11.8988 12.9558 11.8171 13.1074C11.2359 14.1791 10.7421 15.2959 10.3406 16.447C10.1722 16.4832 10.0138 16.5555 9.8761 16.6589C9.73844 16.7623 9.62485 16.8944 9.54318 17.0459C9.09438 17.8813 8.69558 18.7426 8.34888 19.6253C8.09003 19.7286 7.8754 19.9191 7.74207 20.1639C3.21541 28.609 6.57533 32.1999 8.98083 33.5887ZM15.3259 9.99852C15.3732 10.0724 15.4197 10.1468 15.4653 10.2218C15.4886 10.2588 15.5098 10.2919 15.534 10.3306C15.5962 10.4318 15.662 10.5431 15.7292 10.6573L15.7642 10.7165C15.8426 10.8509 15.9194 10.9862 15.9947 11.1224L16.0114 11.1523C16.098 11.3098 16.1827 11.4683 16.2655 11.6278C17.1248 13.2943 17.9938 15.5739 17.5181 17.3493L17.515 17.3545C17.4687 17.5276 17.4083 17.6966 17.3344 17.8598C17.2925 17.9514 17.2586 18.046 17.2082 18.1333L16.5251 19.3164C16.2128 16.8228 14.7135 14.2655 13.8763 13.0013C13.8404 12.9475 13.8002 12.8967 13.756 12.8494C14.1384 11.7734 14.6042 10.7288 15.1491 9.72522C15.2022 9.80728 15.2612 9.89802 15.3259 9.99852ZM22.5777 16.4771C22.7753 16.4464 22.9734 16.4194 23.1719 16.3961L23.2102 16.3919C23.394 16.3708 23.5781 16.3531 23.7626 16.3388L23.8514 16.3327C24.0141 16.3207 24.1747 16.3116 24.3324 16.3022C24.3866 16.2995 24.4383 16.2989 24.4917 16.2965C24.6194 16.2912 24.7468 16.2864 24.869 16.2834C24.9657 16.2818 25.0568 16.2812 25.1479 16.2804C25.2202 16.2787 25.2924 16.2781 25.3646 16.2787C25.8483 16.2808 26.2621 16.2974 26.5505 16.3148L26.5567 16.3184L26.5543 16.3227C25.96 17.2942 25.2903 18.2175 24.5512 19.0839C24.4882 19.0695 24.4242 19.0601 24.3597 19.0559C22.8463 18.9629 19.8818 18.9434 17.566 19.9196L18.2488 18.7369C18.2994 18.6492 18.3647 18.5723 18.4228 18.491C18.5271 18.3454 18.6431 18.2088 18.7696 18.082L18.7731 18.0758C19.6824 17.1673 21.1329 16.7044 22.563 16.4785L22.5777 16.4771ZM15.4757 26.3843C15.4161 26.3964 15.357 26.4099 15.2982 26.4203C15.145 26.4532 14.9924 26.4891 14.8406 26.5281C14.7729 26.5452 14.7059 26.5632 14.6382 26.582C14.4813 26.625 14.3255 26.6723 14.1711 26.7236C14.1197 26.7405 14.0681 26.7558 14.0171 26.7733C13.8402 26.8352 13.6651 26.9024 13.492 26.9747L13.7004 26.6139C13.754 26.5291 13.8122 26.447 13.8743 26.368C13.9787 26.2224 14.0948 26.0855 14.2213 25.9588L14.2246 25.9531C14.3548 25.8225 14.4942 25.7015 14.6417 25.5909C15.1197 25.2465 15.6476 24.9772 16.207 24.7925C16.399 24.726 16.5933 24.6663 16.7895 24.6135L16.8043 24.61C16.9978 24.5577 17.1934 24.5111 17.3909 24.4695L17.4247 24.4627C17.6151 24.4234 17.8064 24.3885 17.9985 24.3582L18.0614 24.3485C18.2415 24.3207 18.4221 24.296 18.603 24.2746L18.7052 24.2645C18.8676 24.2466 19.0302 24.231 19.193 24.2178C19.2484 24.2131 19.3016 24.2111 19.3559 24.2066C19.4913 24.1963 19.6268 24.1877 19.7625 24.1807C19.8465 24.1764 19.9267 24.1743 20.0089 24.1713C20.1059 24.1677 20.2045 24.1638 20.2986 24.1619C20.4243 24.1592 20.5501 24.1576 20.6758 24.1571L20.7943 24.1563C21.2882 24.1573 21.7054 24.1752 21.9971 24.1933L21.9943 24.1981C21.5719 24.8837 21.1143 25.547 20.6236 26.1855C20.6186 26.1826 20.611 26.1837 20.6051 26.1818C20.4987 26.1426 20.3872 26.1188 20.2739 26.1112L20.2231 26.1081L19.8716 26.0901L19.7266 26.0847L19.3994 26.0753L19.2322 26.072C19.0988 26.0703 18.9653 26.0698 18.8319 26.0705L18.7048 26.0704C18.5173 26.0724 18.3299 26.0769 18.1426 26.0839L18.0274 26.0868C17.8695 26.0933 17.7117 26.1017 17.554 26.1119L17.3637 26.1261C17.2179 26.1386 17.0692 26.1517 16.9175 26.1656L16.731 26.1848C16.5256 26.207 16.3208 26.2338 16.1166 26.2652L16.1002 26.2674C15.8977 26.3038 15.6864 26.3419 15.4757 26.3843L15.4757 26.3843ZM12.3292 25.6637C12.2954 25.5045 12.2585 25.346 12.2183 25.1883C12.1616 24.969 12.0983 24.7514 12.0283 24.536C12.0095 24.4772 11.9918 24.4194 11.971 24.3643C11.9029 24.1612 11.8299 23.9597 11.7522 23.76L11.7466 23.7451C11.6707 23.5524 11.5911 23.3612 11.5081 23.1716L11.4326 23.0024C11.3709 22.8654 11.3075 22.729 11.2424 22.5935C11.2149 22.5367 11.1887 22.4807 11.1611 22.4251C11.0906 22.2808 11.0179 22.1376 10.9428 21.9956L10.8927 21.8975C10.8041 21.7304 10.7133 21.5645 10.6202 21.3999L10.5635 21.3015C10.4948 21.1813 10.4252 21.0617 10.3549 20.9426L10.275 20.8105C10.2131 20.7057 10.1517 20.6093 10.0924 20.5148C10.0697 20.4789 10.0477 20.4423 10.0259 20.4069C9.95298 20.2915 9.87877 20.1769 9.80329 20.0631C9.74008 19.9689 9.6637 19.8842 9.57649 19.8116C9.57125 19.8086 9.56848 19.8013 9.5638 19.7973C9.87293 19.0504 10.2197 18.3196 10.6027 17.6078C10.6554 17.6867 10.7129 17.7774 10.7797 17.8797L10.8766 18.0349C10.9122 18.0928 10.9506 18.1467 10.9877 18.2132C11.0354 18.2915 11.0864 18.3784 11.1373 18.4638L11.22 18.6029C11.2818 18.708 11.3457 18.823 11.4104 18.938L11.4666 19.0399C11.5416 19.1767 11.615 19.3142 11.6869 19.4526L11.7214 19.5188C11.8016 19.6739 11.8794 19.8303 11.9547 19.988L11.9779 20.0347C12.0597 20.2065 12.1384 20.3797 12.2142 20.5543L12.2259 20.5797C12.3033 20.763 12.381 20.9465 12.4534 21.1357L12.458 21.1483C12.5323 21.3411 12.6019 21.5358 12.6667 21.7321C13.0957 22.8456 13.2008 24.0578 12.9698 25.2286L12.966 25.2353C12.9195 25.4081 12.8591 25.5769 12.7853 25.7399C12.7435 25.8315 12.7097 25.9264 12.6592 26.0137L12.4493 26.3775C12.4258 26.1914 12.3964 26.0062 12.3612 25.822C12.3538 25.7673 12.3402 25.7166 12.3292 25.6637ZM11.4832 16.792C11.8657 15.7159 12.3315 14.6713 12.8764 13.6676C12.9291 13.7465 12.9863 13.837 13.0534 13.9395L13.1586 14.1077L13.2605 14.2718C13.3129 14.3573 13.3688 14.4527 13.4249 14.5475C13.4477 14.5858 13.469 14.6199 13.4918 14.6594C13.5619 14.7782 13.6315 14.9037 13.7033 15.0324L13.7372 15.0935C13.8167 15.2371 13.8965 15.3878 13.9767 15.5429L13.9924 15.5722C14.0788 15.7398 14.1627 15.9087 14.2438 16.0789L14.2481 16.0868C15.0112 17.6872 15.6711 19.6929 15.2436 21.2904L15.2409 21.2951C15.1944 21.4681 15.1338 21.637 15.0599 21.8002C15.0182 21.8919 14.9843 21.9868 14.9339 22.0741L14.2497 23.2591C13.959 20.9436 12.6448 18.5699 11.7881 17.2313C11.7264 17.135 11.664 17.0392 11.6007 16.9439C11.566 16.89 11.5267 16.839 11.4835 16.7915L11.4832 16.792ZM19.6822 20.529C19.8827 20.4869 20.0841 20.45 20.2865 20.4183L20.3152 20.4143C20.5063 20.3843 20.698 20.3583 20.8902 20.3362C20.9127 20.3329 20.9346 20.3313 20.9566 20.3289C21.1306 20.3092 21.3049 20.2923 21.4794 20.278L21.6069 20.2691C21.7539 20.2583 21.901 20.2493 22.0482 20.242C22.1172 20.2389 22.1862 20.2362 22.2552 20.2341C22.3646 20.2283 22.4741 20.2244 22.5837 20.2226C22.7009 20.2211 22.8152 20.2177 22.9263 20.2186L23.0771 20.2179C23.4772 20.2184 23.8773 20.2306 24.2767 20.2543L24.274 20.2591C23.6798 21.2306 23.01 22.1539 22.2709 23.0203C22.2078 23.0059 22.1436 22.9967 22.079 22.993C21.9648 22.9858 21.8506 22.9796 21.7364 22.9744C20.1544 22.9042 17.4411 22.9539 15.2904 23.86L15.9743 22.6754C16.0281 22.5904 16.0862 22.5085 16.1484 22.4293C16.2528 22.2834 16.3693 22.1461 16.4959 22.0191L16.4981 22.0153C17.3963 21.2284 18.4991 20.7122 19.6787 20.5263L19.6822 20.529ZM8.80239 20.724C9.26544 21.4274 9.68578 22.158 10.0612 22.9119C11.007 24.8184 11.8708 27.3828 10.861 29.1317L9.07396 32.227C6.83423 30.6562 5.21966 27.4107 8.80239 20.724ZM10.1131 32.8271L11.9002 29.7317C13.4167 27.1051 18.645 27.2144 20.2059 27.3173C16.2112 33.7572 12.5936 33.9813 10.1131 32.8271ZM28.8277 12.3767L28.8271 12.3838C28.2326 13.3553 27.5628 14.2786 26.8239 15.1454C26.7608 15.1309 26.6967 15.1217 26.6321 15.1178C26.5257 15.1108 26.4109 15.1049 26.2894 15.0994C24.702 15.0265 21.99 15.0738 19.8388 15.9807L20.5219 14.7976C20.6084 14.6511 20.7068 14.5119 20.8161 14.3814C20.8403 14.3516 20.8653 14.3223 20.8911 14.2937C21.1311 14.0222 21.4077 13.7855 21.713 13.5904L21.7148 13.5873C23.8683 12.2139 27.549 12.3006 28.8277 12.3767ZM19.877 7.67157C22.3597 4.26784 25.3047 3.66089 26.3209 3.55487C26.7264 4.48168 27.6742 7.36314 25.9791 11.194C25.9249 11.1982 25.8748 11.2032 25.8198 11.2095L25.7038 11.2209C24.0979 11.3033 22.5328 11.7562 21.1309 12.5441C21.1127 10.9351 20.7224 9.35208 19.9907 7.91894L19.9443 7.81793C19.9206 7.76901 19.9003 7.72117 19.877 7.67157ZM19.9319 12.5531L19.9295 12.5574C19.9143 12.9197 19.8486 13.2781 19.7345 13.6224C19.7225 13.6586 19.7098 13.6948 19.6964 13.7301C19.6384 13.8917 19.5671 14.0481 19.4832 14.1978L18.8001 15.381C18.439 13.3499 17.6727 11.4123 16.547 9.68356C16.4185 9.47687 16.2876 9.27174 16.1541 9.06822C16.1181 9.01439 16.0779 8.96342 16.034 8.91577C16.4165 7.83973 16.8823 6.79516 17.4272 5.79154C18.1283 6.85251 20.047 10.0028 19.9304 12.5557L19.9319 12.5531Z" fill="#16B364"/>
</g>
<defs>
<clipPath id="clip0_835_28954">
<rect width="36" height="36" fill="white"/>
</clipPath>
</defs>
</svg>
