<svg width="36" height="36" viewBox="0 0 36 36" fill="none" xmlns="http://www.w3.org/2000/svg">
<path d="M21.06 21.381C22.241 21.1156 23.3563 20.6147 24.3393 19.9083C25.3222 19.2019 26.1525 18.3044 26.7806 17.2696C27.4086 16.2349 27.8215 15.084 27.9944 13.886C28.1674 12.688 28.0969 11.4674 27.7872 10.2972L25.4166 1.3392C25.3149 0.955197 25.0891 0.61562 24.7742 0.373387C24.4594 0.131153 24.0732 -0.000128296 23.676 9.40818e-08H12.324C11.9269 4.11109e-06 11.5409 0.131347 11.2262 0.37357C10.9114 0.615793 10.6857 0.955297 10.584 1.3392L8.21341 10.2972C7.90369 11.4673 7.83318 12.6879 8.00611 13.8859C8.17903 15.0839 8.59184 16.2347 9.21982 17.2695C9.84781 18.3042 10.6781 19.2017 11.6609 19.9081C12.6438 20.6146 13.7591 21.1155 14.94 21.381C15.7382 22.2646 16.1863 23.4093 16.2 24.6V32.4H12.6C12.1226 32.4 11.6648 32.5896 11.3272 32.9272C10.9896 33.2648 10.8 33.7226 10.8 34.2C10.8 34.6774 10.9896 35.1352 11.3272 35.4728C11.6648 35.8104 12.1226 36 12.6 36H23.4C23.8774 36 24.3352 35.8104 24.6728 35.4728C25.0104 35.1352 25.2 34.6774 25.2 34.2C25.2 33.7226 25.0104 33.2648 24.6728 32.9272C24.3352 32.5896 23.8774 32.4 23.4 32.4H19.8V24.6C19.8138 23.4093 20.2618 22.2646 21.06 21.381ZM26.6298 10.6044C26.7296 10.9947 26.7992 11.392 26.838 11.793C23.898 13.9848 21.438 12.7002 18.8418 11.3316L18.6774 11.2458C19.7946 9.9786 22.197 8.241 26.3478 9.5388L26.6298 10.6044ZM11.7438 1.6464C11.7777 1.5184 11.853 1.40521 11.9579 1.32446C12.0629 1.24372 12.1916 1.19996 12.324 1.2H23.676C23.8084 1.19996 23.9371 1.24372 24.0421 1.32446C24.147 1.40521 24.2223 1.5184 24.2562 1.6464L25.9866 8.1864C21.3138 7.0272 18.6372 9.4074 17.583 10.6854C16.4217 10.0388 15.1275 9.66747 13.8 9.6C12.1454 9.52931 10.5248 10.0839 9.26041 11.1534C9.29521 10.9734 9.32461 10.7868 9.37261 10.6044L11.7438 1.6464ZM10.7316 17.358C9.79756 16.1487 9.2415 14.6905 9.13321 13.1664C10.095 11.6004 11.6604 10.8 13.8 10.8C14.955 10.8 16.1064 11.2698 17.481 11.9766C17.7468 12.1128 18.0126 12.2526 18.2796 12.393C19.9164 13.2558 21.6828 14.1864 23.613 14.1864C24.7657 14.177 25.8926 13.8444 26.8656 13.2264C26.7064 15.1803 25.818 17.0028 24.3769 18.3318C22.9358 19.6608 21.0476 20.3991 19.0872 20.4H16.9128C15.7177 20.4041 14.5378 20.1316 13.4655 19.6039C12.3931 19.0761 11.4575 18.3075 10.7316 17.358ZM24 34.2C24 34.3591 23.9368 34.5117 23.8243 34.6243C23.7118 34.7368 23.5591 34.8 23.4 34.8H12.6C12.4409 34.8 12.2883 34.7368 12.1757 34.6243C12.0632 34.5117 12 34.3591 12 34.2C12 34.0409 12.0632 33.8883 12.1757 33.7757C12.2883 33.6632 12.4409 33.6 12.6 33.6H23.4C23.5591 33.6 23.7118 33.6632 23.8243 33.7757C23.9368 33.8883 24 34.0409 24 34.2ZM17.4 32.4V24.6C17.3942 23.5353 17.1014 22.4918 16.5522 21.5796C16.6722 21.5844 16.7922 21.6 16.9122 21.6H19.0866C19.2066 21.6 19.3266 21.5844 19.4466 21.5796C18.8979 22.4919 18.6054 23.5354 18.6 24.6V32.4H17.4Z" fill="#16B364"/>
<path d="M2.70709 1.29291L34.7071 33.2929" stroke="#16B364" stroke-width="2" stroke-linecap="round"/>
</svg>
